<?xml version="1.0" ?><!DOCTYPE svg  PUBLIC '-//W3C//DTD SVG 1.1//EN'  'http://www.w3.org/Graphics/SVG/1.1/DTD/svg11.dtd'><svg enable-background="new 0 0 512 512" height="512px"  version="1.1" viewBox="0 0 512 512" width="512px" xml:space="preserve" xmlns="http://www.w3.org/2000/svg" xmlns:xlink="http://www.w3.org/1999/xlink"><g id="amazon"><path d="M254.5,16.5c-131.996,0-239,107.004-239,239s107.004,239,239,239s239-107.004,239-239   S386.496,16.5,254.5,16.5z M412.892,413.892C370.584,456.2,314.333,479.5,254.5,479.5c-59.833,0-116.084-23.3-158.392-65.608   C53.8,371.584,30.5,315.333,30.5,255.5c0-59.833,23.3-116.084,65.608-158.392C138.416,54.8,194.667,31.5,254.5,31.5   c59.833,0,116.084,23.3,158.392,65.608C455.2,139.416,478.5,195.667,478.5,255.5C478.5,315.333,455.2,371.584,412.892,413.892z" fill="#FBAF29"/><path d="M270.5,238.21v19.38c0,15.041-9.834,27.855-18.083,30.329c-16.26,4.9-26.744-7.734-26.346-21.201   c0.503-17.018,15.367-27.383,28.007-27.877L270.5,238.21z M311.5,192.212c0-25.157-21.991-41.187-64.169-39.702   c-25.753,0.899-50.366,10.476-56.683,41.614c-0.285,1.371-0.016,2.878,0.815,4.024c0.832,1.147,2.132,1.933,3.538,2.091   l26.254,2.99c2.517,0.292,5.088-1.574,5.593-4.069c1.896-9.802,9.366-17.042,20.297-17.042c16.279,0,23.355,8.364,23.355,19.469   v14.569l-32.486,2.45c-27.444,2.09-53.004,19.987-53.54,54.272c-0.494,31.587,20.464,46.627,49.077,45.143   c17.042-0.876,31.899-8.16,43.163-20.728l16.199,18.031c0.912,1.011,2.247,1.641,3.614,1.709c1.367,0.044,2.744-0.473,3.731-1.417   l21.084-20.167c1.767-1.686,2.046-4.72,0.616-6.698l-7.534-10.185c-1.574-2.09-2.923-11.308-2.923-16.546V192.212z" fill="#FBAF29"/><path d="M348.815,345.16c-2.669,6.38,3.832,2.22,4.633,1.49c8.77-7.94,15.223-31.77,11.252-35.41   c-5.006-4.58-28.252-4.54-38.553,2.98c-4.302,3.15-1.893,3.76,2.648,3.48c7.942-0.5,15.078-1.02,21.179-0.5   c5.791,0.5,6.118,3.32,4.632,9.43C352.881,333.73,351.794,338.05,348.815,345.16z" fill="#FBAF29"/><path d="M339.29,325.97c-59.968,24.49-129.158,21.09-186.075-8.92c-0.786-0.41-3.574-2.01-6.752-3.6   c-2.484-1.24-2.955-0.83-3.357-0.39c-0.556,0.6-0.346,1.69,0.538,2.49c33.423,30.11,73.606,44.59,117.478,42.69   c33.489-1.46,64.695-13.74,82.564-26.81c2.636-1.93,3.581-4.44,2.483-5.62C345.044,324.6,342.075,324.83,339.29,325.97z" fill="#FBAF29"/></g></svg>