<?xml version="1.0" ?><!DOCTYPE svg  PUBLIC '-//W3C//DTD SVG 1.1//EN'  'http://www.w3.org/Graphics/SVG/1.1/DTD/svg11.dtd'><svg enable-background="new 0 0 512 512" height="512px"  version="1.1" viewBox="0 0 512 512" width="512px" xml:space="preserve" xmlns="http://www.w3.org/2000/svg" xmlns:xlink="http://www.w3.org/1999/xlink"><g id="apple"><path d="M254.5,16.5c-131.996,0-239,107.004-239,239s107.004,239,239,239s239-107.004,239-239   S386.496,16.5,254.5,16.5z M412.892,413.892C370.584,456.2,314.333,479.5,254.5,479.5c-59.833,0-116.084-23.3-158.392-65.608   C53.8,371.584,30.5,315.333,30.5,255.5c0-59.833,23.3-116.084,65.608-158.392C138.416,54.8,194.667,31.5,254.5,31.5   c59.833,0,116.084,23.3,158.392,65.608C455.2,139.416,478.5,195.667,478.5,255.5C478.5,315.333,455.2,371.584,412.892,413.892z" fill="#BABABA"/><path d="M322.1,258.44c-0.316-31.8,25.942-47.072,27.125-47.817c-14.762-21.592-37.739-24.549-45.922-24.881   c-19.566-1.993-38.168,11.505-48.093,11.505c-9.901,0-25.205-11.237-41.441-10.938c-21.316,0.332-40.971,12.388-51.941,31.492   c-22.151,38.435-5.679,95.367,15.912,126.544c10.557,15.256,23.131,32.375,39.635,31.759c15.92-0.624,21.932-10.289,41.158-10.289   c19.21,0,24.622,10.281,41.441,9.965c17.103-0.308,27.96-15.556,38.435-30.86c12.104-17.686,17.087-34.822,17.395-35.681   C355.423,309.044,322.448,296.429,322.1,258.44z" fill="#BABABA"/><path d="M290.478,165.073c8.75-10.613,14.681-25.367,13.068-40.08c-12.623,0.51-27.927,8.385-36.977,19.007   c-8.134,9.398-15.24,24.435-13.344,38.841C267.331,183.934,281.696,175.679,290.478,165.073z" fill="#BABABA"/></g></svg>