<?xml version="1.0" ?><!DOCTYPE svg  PUBLIC '-//W3C//DTD SVG 1.1//EN'  'http://www.w3.org/Graphics/SVG/1.1/DTD/svg11.dtd'><svg enable-background="new 0 0 512 512" height="512px"  version="1.1" viewBox="0 0 512 512" width="512px" xml:space="preserve" xmlns="http://www.w3.org/2000/svg" xmlns:xlink="http://www.w3.org/1999/xlink"><g id="blogger"><path d="M254.5,16.5c-131.996,0-239,107.004-239,239s107.004,239,239,239s239-107.004,239-239   S386.496,16.5,254.5,16.5z M412.892,413.892C370.584,456.2,314.333,479.5,254.5,479.5c-59.833,0-116.084-23.3-158.392-65.608   C53.8,371.584,30.5,315.333,30.5,255.5c0-59.833,23.3-116.084,65.608-158.392C138.416,54.8,194.667,31.5,254.5,31.5   c59.833,0,116.084,23.3,158.392,65.608C455.2,139.416,478.5,195.667,478.5,255.5C478.5,315.333,455.2,371.584,412.892,413.892z" fill="#FC8028"/><path d="M367.754,235.598l-3.237-2.526c-4.192-3.272-25.463,0.226-31.174-4.981   c-4.07-3.732-4.695-10.458-5.936-19.562c-2.274-17.687-3.732-18.606-6.474-24.56c-10.024-21.271-37.179-37.469-55.856-39.469   h-50.545c-39.774,0-72.033,32.56-72.033,72.343v84.365c0,39.696,32.258,72.292,72.033,72.292h83.055   c39.766,0,72.076-32.553,72.293-72.249l0.451-58.463l-0.66-3.196L367.754,235.598z M215.444,203.5h40.087   c7.646,0,13.851,6.406,13.851,13.983c0,7.559-6.205,14.017-13.851,14.017h-40.087c-7.646,0-13.834-6.45-13.834-14.017   C201.61,209.906,207.798,203.5,215.444,203.5z M296.893,313.5h-81.449c-7.646,0-13.834-6.045-13.834-13.517   c0-7.611,6.188-13.483,13.834-13.483h81.449c7.611,0,13.764,5.872,13.764,13.483C310.657,307.455,304.504,313.5,296.893,313.5z" fill="#FC8028"/></g></svg>