<?xml version="1.0" ?><!DOCTYPE svg  PUBLIC '-//W3C//DTD SVG 1.1//EN'  'http://www.w3.org/Graphics/SVG/1.1/DTD/svg11.dtd'><svg enable-background="new 0 0 512 512" height="512px"  version="1.1" viewBox="0 0 512 512" width="512px" xml:space="preserve" xmlns="http://www.w3.org/2000/svg" xmlns:xlink="http://www.w3.org/1999/xlink"><g id="digg"><path d="M254.5,16.5c-131.996,0-239,107.004-239,239s107.004,239,239,239s239-107.004,239-239S386.496,16.5,254.5,16.5z    M412.892,413.892C370.584,456.2,314.333,479.5,254.5,479.5c-59.833,0-116.084-23.3-158.392-65.608   C53.8,371.584,30.5,315.333,30.5,255.5c0-59.833,23.3-116.084,65.608-158.392C138.416,54.8,194.667,31.5,254.5,31.5   c59.833,0,116.084,23.3,158.392,65.608C455.2,139.416,478.5,195.667,478.5,255.5C478.5,315.333,455.2,371.584,412.892,413.892z"/><path d="M391.5,212.5h-68v83h41v13h-42v23h57.008H391.5V212.5z M364.5,272.5h-14v-38h14V272.5z"/><rect height="22" width="28" x="199.5" y="177.5"/><path d="M241.5,308.5v23h56.062H309.5v-119h-68v83h41v13H241.5z M268.5,272.5v-38h14v38H268.5z"/><path d="M117.5,211.5v83h68v-119h-26v36H117.5z M159.5,272.5h-14v-38h14V272.5z"/><rect height="84" width="28" x="199.5" y="211.5"/></g></svg>