<?xml version="1.0" ?><!DOCTYPE svg  PUBLIC '-//W3C//DTD SVG 1.1//EN'  'http://www.w3.org/Graphics/SVG/1.1/DTD/svg11.dtd'><svg enable-background="new 0 0 512 512" height="512px"  version="1.1" viewBox="0 0 512 512" width="512px" xml:space="preserve" xmlns="http://www.w3.org/2000/svg" xmlns:xlink="http://www.w3.org/1999/xlink"><g id="dribble"><path d="M254.5,16.5c-131.996,0-239,107.004-239,239s107.004,239,239,239s239-107.004,239-239   S386.496,16.5,254.5,16.5z M412.892,413.892C370.584,456.2,314.333,479.5,254.5,479.5c-59.833,0-116.084-23.3-158.392-65.608   C53.8,371.584,30.5,315.333,30.5,255.5c0-59.833,23.3-116.084,65.608-158.392C138.416,54.8,194.667,31.5,254.5,31.5   c59.833,0,116.084,23.3,158.392,65.608C455.2,139.416,478.5,195.667,478.5,255.5C478.5,315.333,455.2,371.584,412.892,413.892z" fill="#E13076"/><path d="M254.5,125.224c-72.657,0-131.557,58.9-131.557,131.557s58.9,131.557,131.557,131.557   s131.557-58.9,131.557-131.557S327.157,125.224,254.5,125.224z M341.522,185.059c15.839,19.242,25.419,43.802,25.678,70.575   c-1.635-0.333-39.852-8.552-78.646-3.669c-0.792-1.938-1.605-3.869-2.427-5.852c-2.36-5.504-4.89-10.978-7.516-16.371   C323.198,211.536,341.3,185.363,341.522,185.059z M254.324,143.883c28.578,0,54.685,10.638,74.57,28.163   c-0.274,0.414-16.356,24.894-58.968,40.88c-19.301-35.465-40.518-63.606-42.219-65.877   C236.251,144.993,245.151,143.883,254.324,143.883z M206.15,154.662c1.502,2.005,22.378,30.338,41.916,65.064   c-54.211,14.411-101.261,13.819-104.235,13.79C151.155,198.546,174.657,169.531,206.15,154.662z M141.412,256.781   c0-1.213,0.059-2.382,0.096-3.595c1.997,0.074,57.784,1.332,115.923-16.083c3.233,6.347,6.325,12.776,9.159,19.19   c-1.494,0.436-2.981,0.873-4.453,1.361c-60.928,19.708-91.836,74.518-91.836,74.518s0.03,0.03,0.044,0.059   C152.353,312.235,141.412,285.795,141.412,256.781z M254.317,369.686c-26.181,0-50.224-8.988-69.377-23.939   c0.207-0.444,21.957-47.257,88.596-70.494c0.251-0.081,0.496-0.155,0.732-0.251c15.898,41.295,22.452,75.872,24.132,85.74   C284.848,366.505,269.948,369.686,254.317,369.686z M317.42,350.43c-1.161-6.806-7.168-39.948-21.979-80.651   c36.442-5.837,68.03,4.165,70.353,4.912C360.779,306.161,342.765,333.326,317.42,350.43z" fill="#E13076"/></g></svg>