<?xml version="1.0" ?><!DOCTYPE svg  PUBLIC '-//W3C//DTD SVG 1.1//EN'  'http://www.w3.org/Graphics/SVG/1.1/DTD/svg11.dtd'><svg enable-background="new 0 0 512 512" height="512px"  version="1.1" viewBox="0 0 512 512" width="512px" xml:space="preserve" xmlns="http://www.w3.org/2000/svg" xmlns:xlink="http://www.w3.org/1999/xlink"><g id="dropbox"><path d="M254.5,16.5c-131.996,0-239,107.004-239,239s107.004,239,239,239s239-107.004,239-239   S386.496,16.5,254.5,16.5z M412.892,413.892C370.584,456.2,314.333,479.5,254.5,479.5c-59.833,0-116.084-23.3-158.392-65.608   C53.8,371.584,30.5,315.333,30.5,255.5c0-59.833,23.3-116.084,65.608-158.392C138.416,54.8,194.667,31.5,254.5,31.5   c59.833,0,116.084,23.3,158.392,65.608C455.2,139.416,478.5,195.667,478.5,255.5C478.5,315.333,455.2,371.584,412.892,413.892z" fill="#3879BD"/><polygon fill="#3879BD" points="203.733,147.919 129.635,196.302 180.869,237.332 255.583,191.198  "/><polygon fill="#3879BD" points="129.635,278.362 203.733,326.741 255.583,283.467 180.869,237.332  "/><polygon fill="#3879BD" points="255.583,283.467 307.435,326.741 381.533,278.362 330.299,237.331  "/><polygon fill="#3879BD" points="381.533,196.302 307.435,147.919 255.583,191.198 330.297,237.329  "/><polygon fill="#3879BD" points="255.735,292.778 203.732,335.93 181.48,321.397 181.48,337.684 255.735,382.218 329.992,337.684    329.992,321.397 307.742,335.93  "/></g></svg>