<?xml version="1.0" ?><!DOCTYPE svg  PUBLIC '-//W3C//DTD SVG 1.1//EN'  'http://www.w3.org/Graphics/SVG/1.1/DTD/svg11.dtd'><svg enable-background="new 0 0 512 512" height="512px"  version="1.1" viewBox="0 0 512 512" width="512px" xml:space="preserve" xmlns="http://www.w3.org/2000/svg" xmlns:xlink="http://www.w3.org/1999/xlink"><g id="ebay"><path d="M254.5,16.5c-131.996,0-239,107.004-239,239s107.004,239,239,239s239-107.004,239-239   S386.496,16.5,254.5,16.5z M412.892,413.892C370.584,456.2,314.333,479.5,254.5,479.5c-59.833,0-116.084-23.3-158.392-65.608   C53.8,371.584,30.5,315.333,30.5,255.5c0-59.833,23.3-116.084,65.608-158.392C138.416,54.8,194.667,31.5,254.5,31.5   c59.833,0,116.084,23.3,158.392,65.608C455.2,139.416,478.5,195.667,478.5,255.5C478.5,315.333,455.2,371.584,412.892,413.892z" fill="#1FB33E"/><path d="M144.557,225.832c-21.988,0.599-37.481,11.993-37.481,35.38c0,10.795,3.498,19.789,9.995,25.788   c6.996,5.996,16.492,8.395,27.985,8.395c9.495,0,17.491-1.799,23.488-5.398c5.996-4.198,9.495-8.995,10.495-15.592h-14.492   c-3.498,8.397-11.494,11.394-18.99,11.394c-13.993,0-22.488-7.795-23.488-21.588h59.469   C182.538,239.625,169.544,225.832,144.557,225.832z M122.569,254.616c0.999-12.593,11.494-19.189,21.988-19.189   c12.494,0.599,19.99,5.997,21.489,19.189H122.569z" fill="#ED4E2E"/><path d="M248.004,235.427c-7.496-7.796-16.492-9.595-26.986-9.595c-9.995,0-19.49,4.797-24.488,11.394v-37.182   h-14.992v79.76l-0.5,13.192h14.493l0.5-8.995c5.996,6.597,13.493,10.795,23.488,11.395c10.495,0.6,19.49-1.799,26.987-7.797   c6.996-6.597,11.493-14.992,11.493-26.986C257.998,251.018,254.5,242.023,248.004,235.427z M235.51,279.203   c-4.997,4.198-10.495,6.596-16.991,6.596c-15.492-0.601-21.988-11.993-22.488-25.786c-0.5-13.194,9.995-24.588,22.988-24.588   c6.496,0,11.993,2.399,16.491,6.596c4.498,4.198,6.997,9.595,6.997,17.991C242.506,269.009,240.008,275.006,235.51,279.203z" fill="#004991"/><path d="M326.962,266.01v-14.992c0-19.19-13.992-24.587-31.983-25.186c-6.496,0-12.493,0.599-17.491,2.399   c-9.995,2.997-14.492,7.795-15.991,17.39h15.492c1-7.197,7.496-10.194,16.991-10.194s17.991,4.198,17.991,13.194v3.597   c-4.998,0-12.994,0-23.488,0.6c-9.995,0.6-22.988,2.399-28.985,11.395c-1.999,2.399-3.498,7.795-2.998,11.394   c1.499,14.992,15.992,19.789,27.985,19.789c10.994,0,20.989-1.799,28.485-11.395c0.499,3,0,5.398,0.499,8.995h13.993   C326.462,288.198,326.962,269.009,326.962,266.01z M309.471,275.606c-5.497,10.794-23.988,14.391-33.482,6.596   c-6.496-4.798-5.497-14.994,2.999-17.391c9.495-2.999,22.988-2.999,32.983-2.398C311.971,267.209,311.971,270.808,309.471,275.606z   " fill="#FCB900"/><polygon fill="#1FB33E" points="386.431,228.23 361.445,279.203 335.958,228.23 318.467,228.23 352.949,292.996 339.955,317.583    356.448,317.583 401.924,228.23  "/></g></svg>