<?xml version="1.0" ?><!DOCTYPE svg  PUBLIC '-//W3C//DTD SVG 1.1//EN'  'http://www.w3.org/Graphics/SVG/1.1/DTD/svg11.dtd'><svg enable-background="new 0 0 512 512" height="512px"  version="1.1" viewBox="0 0 512 512" width="512px" xml:space="preserve" xmlns="http://www.w3.org/2000/svg" xmlns:xlink="http://www.w3.org/1999/xlink"><g id="foursquare"><path d="M254.5,16.5c-131.996,0-239,107.004-239,239s107.004,239,239,239s239-107.004,239-239   S386.496,16.5,254.5,16.5z M412.892,413.892C370.584,456.2,314.333,479.5,254.5,479.5c-59.833,0-116.084-23.3-158.392-65.608   C53.8,371.584,30.5,315.333,30.5,255.5c0-59.833,23.3-116.084,65.608-158.392C138.416,54.8,194.667,31.5,254.5,31.5   c59.833,0,116.084,23.3,158.392,65.608C455.2,139.416,478.5,195.667,478.5,255.5C478.5,315.333,455.2,371.584,412.892,413.892z" fill="#071D90"/><path d="M233.442,128.11L127.985,233.574c-12.608,12.597-12.608,33.233,0,45.852l105.468,105.468   c12.608,12.584,33.241,12.584,45.849,0l105.447-105.468c12.597-12.618,12.597-33.219,0-45.852l-0.512-0.509L273.27,344.107   c-4.785,4.732-11.148,7.365-17.894,7.365l-4.924-0.022l-1.034-0.682c-4.53-1.079-8.707-3.432-12.001-6.748l-73.025-73.151   c-4.785-4.796-7.428-11.116-7.428-17.894c0-6.76,2.643-13.109,7.428-17.883l21.603-21.574c4.7-4.686,11.201-7.351,17.884-7.372   c6.661,0,13.183,2.715,17.851,7.437l33.668,33.72l71.524-71.576l-47.618-47.616C266.694,115.521,246.061,115.521,233.442,128.11z" fill="#071D90"/><path d="M370.787,167.093c-1.715-1.735-3.975-2.664-6.405-2.664c-2.44,0-4.71,0.93-6.448,2.635L254.853,270.226   l-45.135-45.238c-1.695-1.687-4.007-2.668-6.427-2.668c-2.366,0-4.721,0.927-6.416,2.633l-21.571,21.499   c-3.559,3.549-3.581,9.153-0.01,12.702l73.036,72.962c1.471,1.463,3.369,3.97,5.382,4.183l1.045,1.178h0.075   c2.441,0,4.753-2.049,6.48-3.765l131.025-131.179c3.528-3.541,3.549-9.8,0.011-13.348L370.787,167.093z" fill="#071D90"/></g></svg>