<?xml version="1.0" ?><svg height="512px" version="1.1" viewBox="0 0 24 24" width="512px" xmlns="http://www.w3.org/2000/svg" xmlns:sketch="http://www.bohemiancoding.com/sketch/ns" xmlns:xlink="http://www.w3.org/1999/xlink"><title/><desc/><defs/><g fill="none" fill-rule="evenodd" id="miu" stroke="none" stroke-width="0.5">
<g id="google" transform="translate(-359.000000, -659.000000)"><g id="slice" transform="translate(215.000000, 119.000000)"/>

<path d="M371,682 C377.075133,682 382,677.075133 382,671 C382,664.924867 377.075133,660 371,660 C364.924867,660 360,664.924867 360,671 C360,677.075133 364.924867,682 371,682 Z M371,681 C376.522848,681 381,676.522848 381,671 C381,665.477152 376.522848,661 371,661 C365.477152,661 361,665.477152 361,671 C361,676.522848 365.477152,681 371,681 Z M376.679245,670.437702 L376.679245,669.114569 L375.735849,669.114569 L375.735849,670.437702 L374.377358,670.437702 L374.377358,671.382796 L375.735849,671.382796 L375.735849,672.743732 L376.679245,672.743732 L376.679245,671.382796 L378,671.382796 L378,670.437702 L376.679245,670.437702 Z M369.811321,670.362094 L369.811321,671.874245 C369.811321,671.874245 371.275623,671.872279 371.871849,671.872279 C371.548981,672.852569 371.046943,673.386396 369.811321,673.386396 C368.560868,673.386396 367.584906,672.370873 367.584906,671.11817 C367.584906,669.865466 368.560868,668.849943 369.811321,668.849943 C370.472453,668.849943 370.899434,669.082738 371.291094,669.407208 C371.604604,669.093135 371.578415,669.048375 372.376038,668.293774 C371.698943,667.676362 370.799019,667.299988 369.811321,667.299988 C367.706377,667.299988 366,669.009437 366,671.11817 C366,673.226864 367.706377,674.936351 369.811321,674.936351 C372.957623,674.936351 373.726642,672.191797 373.471698,670.362094 L369.811321,670.362094 Z" fill="#C1211D" id="circle-social-google-plus-outline-stroke"/></g></g></svg>
