<?xml version="1.0" ?><!DOCTYPE svg  PUBLIC '-//W3C//DTD SVG 1.1//EN'  'http://www.w3.org/Graphics/SVG/1.1/DTD/svg11.dtd'><svg enable-background="new 0 0 512 512" height="512px"  version="1.1" viewBox="0 0 512 512" width="512px" xml:space="preserve" xmlns="http://www.w3.org/2000/svg" xmlns:xlink="http://www.w3.org/1999/xlink"><g id="myspace"><path d="M254.5,16.5c-131.996,0-239,107.004-239,239s107.004,239,239,239s239-107.004,239-239   S386.496,16.5,254.5,16.5z M412.892,413.892C370.584,456.2,314.333,479.5,254.5,479.5c-59.833,0-116.084-23.3-158.392-65.608   C53.8,371.584,30.5,315.333,30.5,255.5c0-59.833,23.3-116.084,65.608-158.392C138.416,54.8,194.667,31.5,254.5,31.5   c59.833,0,116.084,23.3,158.392,65.608C455.2,139.416,478.5,195.667,478.5,255.5C478.5,315.333,455.2,371.584,412.892,413.892z" fill="#231F20"/><path d="M347.161,259.396c24.037,0,43.533-19.419,43.533-43.374c0-23.952-19.495-43.379-43.533-43.379   c-24.054,0-43.55,19.427-43.55,43.379C303.612,239.978,323.107,259.396,347.161,259.396" fill="#231F20"/><path d="M351.256,269.467c-0.316-0.034-0.772-0.06-1.093-0.081c-0.252-0.025-0.565,0.077-0.826,0.055   c-0.692-0.03-1.446,0.06-2.138,0.06h-0.025h-0.047c-0.709,0-1.406-0.089-2.093-0.06c-0.261,0.021-0.517-0.027-0.765-0.002   c-0.316,0.021-0.552,0.021-0.868,0.055c-24.622,2.119-43.901,24.036-43.901,49.086v16.829c0,2.397,1.754,4.092,4.159,4.092h1.538   h83.921h1.538c2.401,0,4.845-1.695,4.845-4.092v-16.829C395.5,293.529,375.879,271.586,351.256,269.467" fill="#231F20"/><path d="M246.292,267.433c21.636,0,39.187-17.483,39.187-39.038c0-21.568-17.551-39.046-39.187-39.046   c-21.649,0-39.192,17.479-39.192,39.046C207.101,249.95,224.643,267.433,246.292,267.433" fill="#231F20"/><path d="M249.826,276.49c-0.282-0.017-0.617-0.051-0.9-0.077c-0.235-0.013-0.484,0.069-0.71,0.047   c-0.624-0.026-1.262,0.039-1.889,0.039h-0.043h-0.034c-0.628,0-1.248-0.065-1.876-0.039c-0.222,0.021-0.453-0.018-0.688-0.004   c-0.287,0.025-0.439,0.038-0.726,0.055c-22.157,1.91-39.46,21.636-39.46,44.173v15.159v0.004c0,2.162,1.477,3.652,3.639,3.652   h1.385h75.521h1.393c2.158,0,4.064-1.49,4.064-3.652v-0.004v-15.159C289.5,298.148,271.991,278.401,249.826,276.49" fill="#231F20"/><path d="M154.604,274.662c19.479,0,35.27-15.723,35.27-35.124c0-19.414-15.791-35.142-35.27-35.142   c-19.482,0-35.269,15.727-35.269,35.142C119.335,258.939,135.122,274.662,154.604,274.662" fill="#231F20"/><path d="M157.797,282.818c-0.265-0.025-0.56-0.056-0.821-0.06c-0.205-0.013-0.427-0.123-0.637-0.123   c-0.564-0.042-1.137-0.135-1.701-0.135h-0.021h-0.043c-0.577,0-1.137,0.093-1.696,0.135c-0.205,0-0.402,0.066-0.62,0.079   c-0.252,0.004-0.689,0.056-0.95,0.082c-19.944,1.718-35.809,19.518-35.809,39.799v13.647c0,1.931,1.925,3.258,3.864,3.258h1.252   h67.971h1.243c1.953,0,3.669-1.327,3.669-3.258v-13.647C193.5,302.314,177.746,284.536,157.797,282.818" fill="#231F20"/></g></svg>