<?xml version="1.0" ?><!DOCTYPE svg  PUBLIC '-//W3C//DTD SVG 1.1//EN'  'http://www.w3.org/Graphics/SVG/1.1/DTD/svg11.dtd'><svg enable-background="new 0 0 512 512" height="512px"  version="1.1" viewBox="0 0 512 512" width="512px" xml:space="preserve" xmlns="http://www.w3.org/2000/svg" xmlns:xlink="http://www.w3.org/1999/xlink"><g id="pinterest"><path d="M254.5,16.5c-131.996,0-239,107.004-239,239s107.004,239,239,239s239-107.004,239-239   S386.496,16.5,254.5,16.5z M412.892,413.892C370.584,456.2,314.333,479.5,254.5,479.5c-59.833,0-116.084-23.3-158.392-65.608   C53.8,371.584,30.5,315.333,30.5,255.5c0-59.833,23.3-116.084,65.608-158.392C138.416,54.8,194.667,31.5,254.5,31.5   c59.833,0,116.084,23.3,158.392,65.608C455.2,139.416,478.5,195.667,478.5,255.5C478.5,315.333,455.2,371.584,412.892,413.892z" fill="#BC001C"/><path d="M260.292,145.567c-67.37,0-101.343,48.299-101.343,88.584c0,24.387,9.233,46.082,29.034,54.16   c3.248,1.339,6.159,0.05,7.101-3.546c0.655-2.479,2.207-8.757,2.896-11.38c0.947-3.555,0.58-4.795-2.043-7.904   c-5.708-6.729-9.362-15.447-9.362-27.804c0-35.832,26.812-67.911,69.815-67.911c38.079,0,59,23.267,59,54.334   c0,40.89-18.095,75.399-44.952,75.399c-14.837,0-25.935-12.263-22.384-27.313c4.26-17.966,12.516-37.345,12.516-50.322   c0-11.604-6.233-21.283-19.121-21.283c-15.164,0-27.348,15.69-27.348,36.7c0,13.384,4.522,22.439,4.522,22.439   s-15.516,65.754-18.239,77.268c-5.415,22.935-0.813,51.041-0.421,53.878c0.228,1.686,2.39,2.093,3.372,0.823   c1.393-1.83,19.463-24.125,25.597-46.41c1.741-6.303,9.972-38.971,9.972-38.971c4.929,9.402,19.329,17.663,34.642,17.663   c45.576,0,76.505-41.55,76.505-97.168C350.056,184.737,314.432,145.567,260.292,145.567z" fill="#BC001C"/></g></svg>