<?xml version="1.0" ?><!DOCTYPE svg  PUBLIC '-//W3C//DTD SVG 1.1//EN'  'http://www.w3.org/Graphics/SVG/1.1/DTD/svg11.dtd'><svg enable-background="new 0 0 512 512" height="512px"  version="1.1" viewBox="0 0 512 512" width="512px" xml:space="preserve" xmlns="http://www.w3.org/2000/svg" xmlns:xlink="http://www.w3.org/1999/xlink"><g id="rss"><path d="M254.5,16.5c-131.996,0-239,107.004-239,239s107.004,239,239,239s239-107.004,239-239   S386.496,16.5,254.5,16.5z M412.892,413.892C370.584,456.2,314.333,479.5,254.5,479.5c-59.833,0-116.084-23.3-158.392-65.608   C53.8,371.584,30.5,315.333,30.5,255.5c0-59.833,23.3-116.084,65.608-158.392C138.416,54.8,194.667,31.5,254.5,31.5   c59.833,0,116.084,23.3,158.392,65.608C455.2,139.416,478.5,195.667,478.5,255.5C478.5,315.333,455.2,371.584,412.892,413.892z" fill="#FC5C20"/><path d="M160.5,144.432v39.995c92,0,167.62,76.073,167.62,169.073h39.978   C368.098,238.5,274.5,144.432,160.5,144.432z" fill="#FC5C20"/><path d="M257.504,352.5h39.961c0-75-61.965-137.204-136.965-137.204v39.978c26,0,50.264,9.918,68.594,28.342   C247.466,302.039,257.504,326.5,257.504,352.5z" fill="#FC5C20"/><path d="M160.338,325.112c0,15.285,12.394,27.696,27.687,27.696c15.285,0,27.696-12.419,27.696-27.696   c0-15.302-12.411-27.696-27.696-27.696C172.732,297.416,160.338,309.81,160.338,325.112z" fill="#FC5C20"/></g></svg>