<?xml version="1.0" ?><!DOCTYPE svg  PUBLIC '-//W3C//DTD SVG 1.1//EN'  'http://www.w3.org/Graphics/SVG/1.1/DTD/svg11.dtd'><svg enable-background="new 0 0 512 512" height="512px"  version="1.1" viewBox="0 0 512 512" width="512px" xml:space="preserve" xmlns="http://www.w3.org/2000/svg" xmlns:xlink="http://www.w3.org/1999/xlink"><g id="skype"><path d="M254.5,16.5c-131.996,0-239,107.004-239,239s107.004,239,239,239s239-107.004,239-239   S386.496,16.5,254.5,16.5z M412.892,413.892C370.584,456.2,314.333,479.5,254.5,479.5c-59.833,0-116.084-23.3-158.392-65.608   C53.8,371.584,30.5,315.333,30.5,255.5c0-59.833,23.3-116.084,65.608-158.392C138.416,54.8,194.667,31.5,254.5,31.5   c59.833,0,116.084,23.3,158.392,65.608C455.2,139.416,478.5,195.667,478.5,255.5C478.5,315.333,455.2,371.584,412.892,413.892z" fill="#139DEB"/><path d="M358.552,259.784c0-58.436-47.375-105.819-105.811-105.819c-6.17,0-12.227,0.527-18.104,1.558   c-9.466-5.967-20.633-9.436-32.657-9.436c-33.898,0-61.363,27.488-61.363,61.378c0,11.332,3.085,21.927,8.435,31.039   c-1.407,6.878-2.137,13.988-2.137,21.28c0,58.429,47.375,105.811,105.826,105.811c6.614,0,13.078-0.617,19.368-1.761   c8.631,4.643,18.518,7.291,29,7.291c33.906,0,61.386-27.48,61.386-61.371c0-9.805-2.31-19.045-6.396-27.262   C357.702,275.172,358.552,267.572,358.552,259.784z M307.031,310.372c-4.891,6.908-12.122,12.386-21.498,16.298   c-9.278,3.845-20.399,5.816-33.071,5.816c-15.192,0-27.939-2.694-37.887-7.969c-7.111-3.838-12.965-9.037-17.419-15.463   c-4.485-6.464-6.772-12.92-6.772-19.105c0-3.883,1.482-7.261,4.409-9.993c2.912-2.731,6.614-4.116,11.054-4.116   c3.627,0,6.772,1.091,9.316,3.251c2.438,2.054,4.522,5.132,6.2,9.067c1.881,4.297,3.928,7.908,6.087,10.76   c2.077,2.762,5.057,5.072,8.864,6.878c3.838,1.806,9.022,2.731,15.373,2.731c8.759,0,15.93-1.866,21.325-5.553   c5.275-3.604,7.833-7.908,7.833-13.198c0-4.176-1.354-7.464-4.101-10.038c-2.867-2.686-6.674-4.793-11.287-6.23   c-4.808-1.505-11.332-3.115-19.414-4.808c-10.978-2.37-20.316-5.147-27.736-8.307c-7.585-3.236-13.695-7.705-18.164-13.289   c-4.56-5.704-6.862-12.83-6.862-21.22c0-7.999,2.423-15.2,7.186-21.415c4.725-6.17,11.633-10.963,20.542-14.259   c8.774-3.243,19.225-4.906,31.039-4.906c9.466,0,17.766,1.106,24.703,3.251c6.968,2.19,12.86,5.117,17.472,8.736   c4.643,3.627,8.112,7.51,10.286,11.565c2.19,4.078,3.303,8.149,3.303,12.07c0,3.785-1.452,7.231-4.334,10.211   c-2.889,3.017-6.554,4.545-10.873,4.545c-3.913,0-6.983-0.956-9.112-2.852c-1.987-1.731-4.026-4.477-6.306-8.39   c-2.649-5.011-5.854-8.969-9.496-11.746c-3.574-2.716-9.511-4.101-17.683-4.101c-7.585,0-13.763,1.535-18.33,4.53   c-4.425,2.897-6.569,6.23-6.569,10.143c0,2.408,0.692,4.425,2.114,6.155c1.497,1.851,3.634,3.454,6.306,4.793   c2.777,1.407,5.644,2.528,8.525,3.318c2.935,0.813,7.878,2.017,14.635,3.589c8.563,1.821,16.426,3.89,23.394,6.125   c7.036,2.25,13.138,5.026,18.089,8.262c5.064,3.296,9.082,7.54,11.957,12.589c2.867,5.087,4.304,11.362,4.304,18.638   C314.435,295.458,311.952,303.389,307.031,310.372z" fill="#139DEB"/></g></svg>