<?xml version="1.0" ?><!DOCTYPE svg  PUBLIC '-//W3C//DTD SVG 1.1//EN'  'http://www.w3.org/Graphics/SVG/1.1/DTD/svg11.dtd'><svg enable-background="new 0 0 512 512" height="512px"  version="1.1" viewBox="0 0 512 512" width="512px" xml:space="preserve" xmlns="http://www.w3.org/2000/svg" xmlns:xlink="http://www.w3.org/1999/xlink"><g id="soundcloud"><path d="M202.947,313.823c1.67,0,3.014-1.341,3.069-3.047v-0.003l2.153-31.64l-2.153-68.968   c-0.052-1.712-1.403-3.056-3.069-3.056c-1.677,0-3.027,1.341-3.073,3.056l-1.911,68.965l1.915,31.656   C199.924,312.482,201.274,313.823,202.947,313.823z" fill="#FB4F1E"/><path d="M228.243,313.852c1.97,0,3.542-1.566,3.588-3.575v0.026l1.801-31.157l-1.801-64.761   c-0.046-2.003-1.618-3.572-3.588-3.572c-1.973,0-3.555,1.569-3.595,3.578l-1.605,64.751l1.605,31.157   C224.687,312.283,226.266,313.852,228.243,313.852z" fill="#FB4F1E"/><path d="M265.428,313.937c0.095,0.01,102.745,0.062,103.41,0.062c20.602,0,37.306-16.704,37.306-37.309   c0-20.605-16.701-37.312-37.302-37.312c-5.111,0-9.988,1.034-14.43,2.896c-2.968-33.623-31.164-59.998-65.556-59.998   c-8.416,0-16.619,1.657-23.864,4.459c-2.815,1.089-3.565,2.212-3.591,4.387v118.405C261.429,311.81,263.2,313.712,265.428,313.937z   " fill="#FB4F1E"/><path d="M190.445,313.761c1.517,0,2.75-1.223,2.812-2.789l2.329-31.842l-2.326-66.721   c-0.062-1.566-1.295-2.789-2.812-2.789c-1.53,0-2.766,1.226-2.815,2.792c0,0.003-2.065,66.714-2.065,66.714l2.065,31.855   C187.682,312.535,188.918,313.761,190.445,313.761z" fill="#FB4F1E"/><path d="M253.773,313.725c2.234,0,4.074-1.836,4.107-4.097v0.036l1.83-30.505l-1.83-84.048   c-0.033-2.254-1.872-4.094-4.107-4.094c-2.241,0-4.081,1.84-4.113,4.1l-1.683,84.041l1.686,30.501   C249.693,311.889,251.532,313.725,253.773,313.725z" fill="#FB4F1E"/><path d="M241.036,313.911c2.088,0,3.81-1.719,3.849-3.833l1.624-30.929l-1.624-77.058   c-0.036-2.11-1.761-3.833-3.849-3.833c-2.091,0-3.816,1.719-3.849,3.836l-1.451,77.028c0,0.049,1.451,30.974,1.451,30.974   C237.219,312.192,238.948,313.911,241.036,313.911z" fill="#FB4F1E"/><path d="M215.548,313.79c1.817,0,3.281-1.458,3.33-3.317v0.023l1.977-31.359l-1.98-67.204   c-0.049-1.859-1.513-3.314-3.33-3.314c-1.83,0-3.294,1.455-3.334,3.314l-1.758,67.207l1.761,31.353   C212.253,312.332,213.718,313.79,215.548,313.79z" fill="#FB4F1E"/><path d="M117.487,306.957c0.636,0,1.155-0.502,1.259-1.223l3.392-26.643l-3.389-27.24   c-0.104-0.724-0.623-1.223-1.262-1.223c-0.643,0-1.174,0.515-1.262,1.223c0,0.006-2.981,27.24-2.981,27.24l2.981,26.636   C116.31,306.441,116.841,306.957,117.487,306.957z" fill="#FB4F1E"/><path d="M106.276,296.832c0.613,0,1.112-0.483,1.21-1.177l2.629-16.564l-2.629-16.851   c-0.095-0.695-0.6-1.184-1.21-1.184c-0.633,0-1.135,0.489-1.217,1.187l-2.218,16.847l2.218,16.557   C105.141,296.346,105.643,296.832,106.276,296.832z" fill="#FB4F1E"/><path d="M129.403,311.722c0.789,0,1.429-0.623,1.52-1.484l3.216-31.144l-3.213-32.318   c-0.095-0.864-0.734-1.487-1.523-1.487c-0.799,0-1.439,0.626-1.52,1.487c0,0.003-2.831,32.318-2.831,32.318l2.831,31.138   C127.961,311.096,128.6,311.722,129.403,311.722z" fill="#FB4F1E"/><path d="M141.416,312.972c0.93,0,1.696-0.75,1.778-1.745l3.04-32.126l-3.04-33.212   c-0.082-0.995-0.848-1.745-1.778-1.745c-0.939,0-1.706,0.75-1.781,1.752l-2.675,33.206l2.675,32.126   C139.707,312.221,140.477,312.972,141.416,312.972z" fill="#FB4F1E"/><path d="M165.733,313.764c1.217,0,2.225-1.001,2.296-2.27v0.01l2.685-32.39l-2.685-50.115   c-0.072-1.272-1.08-2.274-2.296-2.274c-1.223,0-2.234,1.001-2.293,2.274l-2.375,50.115l2.375,32.387   C163.502,312.766,164.51,313.764,165.733,313.764z" fill="#FB4F1E"/><path d="M153.527,313.497c1.08,0,1.954-0.864,2.035-2.003l2.864-32.393l-2.864-30.815   c-0.078-1.138-0.952-1.996-2.035-1.996c-1.096,0-1.97,0.864-2.039,2.009l-2.521,30.802l2.521,32.39   C151.56,312.632,152.431,313.497,153.527,313.497z" fill="#FB4F1E"/><path d="M178.043,313.826c1.363,0,2.489-1.112,2.554-2.531l2.505-32.172l-2.505-61.577   c-0.069-1.422-1.191-2.531-2.554-2.531c-1.376,0-2.499,1.112-2.557,2.531c0,0.003-2.218,61.577-2.218,61.577l2.221,32.185   C175.545,312.714,176.667,313.826,178.043,313.826z" fill="#FB4F1E"/><path d="M254.5,16.5c-131.996,0-239,107.004-239,239s107.004,239,239,239s239-107.004,239-239   S386.496,16.5,254.5,16.5z M412.892,413.892C370.584,456.2,314.333,479.5,254.5,479.5c-59.833,0-116.084-23.3-158.392-65.608   C53.8,371.584,30.5,315.333,30.5,255.5c0-59.833,23.3-116.084,65.608-158.392C138.416,54.8,194.667,31.5,254.5,31.5   c59.833,0,116.084,23.3,158.392,65.608C455.2,139.416,478.5,195.667,478.5,255.5C478.5,315.333,455.2,371.584,412.892,413.892z" fill="#FB4F1E"/></g></svg>