<?xml version="1.0" ?><!DOCTYPE svg  PUBLIC '-//W3C//DTD SVG 1.1//EN'  'http://www.w3.org/Graphics/SVG/1.1/DTD/svg11.dtd'><svg enable-background="new 0 0 512 512" height="512px"  version="1.1" viewBox="0 0 512 512" width="512px" xml:space="preserve" xmlns="http://www.w3.org/2000/svg" xmlns:xlink="http://www.w3.org/1999/xlink"><g id="stumbleupon"><path d="M254.5,16.5c-131.996,0-239,107.004-239,239s107.004,239,239,239s239-107.004,239-239   S386.496,16.5,254.5,16.5z M412.892,413.892C370.584,456.2,314.333,479.5,254.5,479.5c-59.833,0-116.084-23.3-158.392-65.608   C53.8,371.584,30.5,315.333,30.5,255.5c0-59.833,23.3-116.084,65.608-158.392C138.416,54.8,194.667,31.5,254.5,31.5   c59.833,0,116.084,23.3,158.392,65.608C455.2,139.416,478.5,195.667,478.5,255.5C478.5,315.333,455.2,371.584,412.892,413.892z" fill="#E3311C"/><path d="M270.5,230.068l18.893,8.748l28.107-8.356v-19.419c-1-33.055-28.205-59.563-61.5-59.563   c-33.176,0-60.5,26.315-61.5,59.2v88.727c0,8.031-6.469,14.542-14.5,14.542c-8.031,0-14.5-6.511-14.5-14.542V261.5h-47   c0,0,0,37.964,0,38.407c0,33.926,27.526,61.428,61.452,61.428c33.628,0,60.897-27.031,61.371-60.546l0.075-87.632   c0-8.031,6.521-14.542,14.551-14.542c8.031,0,14.551,6.511,14.551,14.542V230.068z M346.5,261.5v39.661   c0,8.031-6.469,14.542-14.5,14.542c-8.031,0-14.5-6.511-14.5-14.542v-38.608l-28.107,8.356l-18.893-8.748v38.29   c0,33.672,27.758,60.883,61.5,60.883c33.926,0,61.5-27.502,61.5-61.428c0-0.443,0-38.407,0-38.407H346.5z" fill="#E3311C" id="icon"/></g></svg>