<?xml version="1.0" ?><!DOCTYPE svg  PUBLIC '-//W3C//DTD SVG 1.1//EN'  'http://www.w3.org/Graphics/SVG/1.1/DTD/svg11.dtd'><svg enable-background="new 0 0 512 512" height="512px"  version="1.1" viewBox="0 0 512 512" width="512px" xml:space="preserve" xmlns="http://www.w3.org/2000/svg" xmlns:xlink="http://www.w3.org/1999/xlink"><g id="tumblr"><path d="M254.5,16.5c-131.996,0-239,107.004-239,239s107.004,239,239,239s239-107.004,239-239   S386.496,16.5,254.5,16.5z M412.892,413.892C370.584,456.2,314.333,479.5,254.5,479.5c-59.833,0-116.084-23.3-158.392-65.608   C53.8,371.584,30.5,315.333,30.5,255.5c0-59.833,23.3-116.084,65.608-158.392C138.416,54.8,194.667,31.5,254.5,31.5   c59.833,0,116.084,23.3,158.392,65.608C455.2,139.416,478.5,195.667,478.5,255.5C478.5,315.333,455.2,371.584,412.892,413.892z" fill="#21364F"/><path d="M266.5,126.864V189.5h62v48h-62v69.143c0,15.654-0.387,24.685,1.263,29.121   c1.65,4.414,5.687,8.998,10.183,11.641c5.988,3.586,12.94,5.373,20.628,5.373c13.664,0,26.926-4.436,40.926-13.313v42.549   c-12,5.428-22.168,9.255-31.516,11.427c-9.36,2.171-19.561,3.29-30.428,3.29c-12.337,0-19.669-1.563-29.138-4.661   c-9.486-3.136-17.599-7.594-24.282-13.324c-6.717-5.774-11.249-11.909-13.837-18.396c-2.593-6.503-3.798-15.923-3.798-28.26V237.5   h-37v-38.271c11-3.438,22.954-8.373,30.499-14.799c7.578-6.448,13.676-14.342,18.238-23.362c4.595-8.998,7.776-20.569,9.503-34.569   H266.5V126.864z" fill="#21364F"/></g></svg>