<?xml version="1.0" ?><!DOCTYPE svg  PUBLIC '-//W3C//DTD SVG 1.1//EN'  'http://www.w3.org/Graphics/SVG/1.1/DTD/svg11.dtd'><svg enable-background="new 0 0 512 512" height="512px"  version="1.1" viewBox="0 0 512 512" width="512px" xml:space="preserve" xmlns="http://www.w3.org/2000/svg" xmlns:xlink="http://www.w3.org/1999/xlink"><g id="vimeo"><path d="M254.5,16.5c-131.996,0-239,107.004-239,239s107.004,239,239,239s239-107.004,239-239   S386.496,16.5,254.5,16.5z M412.892,413.892C370.584,456.2,314.333,479.5,254.5,479.5c-59.833,0-116.084-23.3-158.392-65.608   C53.8,371.584,30.5,315.333,30.5,255.5c0-59.833,23.3-116.084,65.608-158.392C138.416,54.8,194.667,31.5,254.5,31.5   c59.833,0,116.084,23.3,158.392,65.608C455.2,139.416,478.5,195.667,478.5,255.5C478.5,315.333,455.2,371.584,412.892,413.892z" fill="#20AAE5"/><path d="M374.06,208.323c13.545-76.264-91.053-60.282-102.136,6.159c27.699-16.633,42.48,6.752,28.309,33.225   c-14.146,26.456-27.065,43.682-33.834,43.682c-6.76,0-11.956-17.67-19.688-48.614c-8.012-31.981-7.962-89.562-41.22-83.065   c-31.364,6.176-72.583,55.391-72.583,55.391l9.84,12.928c0,0,20.297-16.024,27.065-8.012c6.76,8.012,32.599,104.614,41.22,122.433   c7.526,15.612,28.284,36.279,51.06,21.549C284.852,349.233,360.515,284.636,374.06,208.323z" fill="#20AAE5"/></g></svg>