<?xml version="1.0" ?><!DOCTYPE svg  PUBLIC '-//W3C//DTD SVG 1.1//EN'  'http://www.w3.org/Graphics/SVG/1.1/DTD/svg11.dtd'><svg enable-background="new 0 0 512 512" height="512px"  version="1.1" viewBox="0 0 512 512" width="512px" xml:space="preserve" xmlns="http://www.w3.org/2000/svg" xmlns:xlink="http://www.w3.org/1999/xlink"><g id="wordpress"><path d="M254.5,16.5c-131.996,0-239,107.004-239,239s107.004,239,239,239s239-107.004,239-239   S386.496,16.5,254.5,16.5z M412.892,413.892C370.584,456.2,314.333,479.5,254.5,479.5c-59.833,0-116.084-23.3-158.392-65.608   C53.8,371.584,30.5,315.333,30.5,255.5c0-59.833,23.3-116.084,65.608-158.392C138.416,54.8,194.667,31.5,254.5,31.5   c59.833,0,116.084,23.3,158.392,65.608C455.2,139.416,478.5,195.667,478.5,255.5C478.5,315.333,455.2,371.584,412.892,413.892z" fill="#2984B8"/><path d="M123.442,256.571c-0.415-72.177,59.456-131.638,132.025-131.178c71.327,0.46,130.14,59.39,130.094,131.27   c-0.024,72.109-59.205,130.988-131.591,130.947C182.23,387.562,123.442,328.54,123.442,256.571z M202.272,361.905l0.23-0.023   v-0.229c-0.414-1.314-0.76-2.649-1.22-3.938c-17.714-48.525-35.409-97.053-53.148-145.578c-0.301-0.829-0.37-2.209-1.289-2.275   c-1.196-0.071-1.22,1.401-1.589,2.275c-6.833,16.588-9.71,33.94-8.422,51.792c2.44,34.006,16.934,62.033,43.142,83.87   C186.762,353.461,194.032,358.455,202.272,361.905z M313.45,326.402c0.298-0.688,0.598-1.149,0.736-1.656   c5.892-19.649,11.874-39.253,17.534-58.968c4.024-13.995,2.642-27.682-3.706-40.82c-2.305-4.739-5.11-9.159-7.824-13.648   c-3.107-5.129-5.934-10.376-7.064-16.381c-2.439-12.677,5.474-23.676,18.199-25.356c0.531-0.068,1.128,0.024,1.495-0.579   c0-0.872-0.735-1.217-1.288-1.653c-26.413-22.339-56.924-31.66-91.207-27.841c-25.285,2.83-47.262,13.345-66.014,30.512   c-6.258,5.751-11.757,12.192-16.61,19.166c-0.414,0.574-1.106,1.193-0.808,1.932c0.37,0.961,1.427,0.598,2.211,0.619   c2.208,0.066,4.394,0.026,6.625,0.066c9.48,0.141,18.916-0.893,28.373-1.24c3.658-0.113,5.68,1.406,5.935,4.325   c0.254,2.741-1.68,4.763-5.177,5.249c-2.83,0.389-5.661,0.619-8.512,0.872c-4.029,0.368-4.073,0.368-2.763,4.257   c13.391,39.85,26.783,79.683,40.174,119.533c0.323,0.898,0.349,2.004,1.429,2.552c0.805-0.531,0.94-1.38,1.194-2.138   c7.961-23.816,15.899-47.651,23.836-71.468c0.418-1.24,0.667-2.436,0.188-3.747c-5.709-15.556-11.394-31.11-17.026-46.664   c-0.601-1.653-1.636-2.162-3.314-2.278c-3.382-0.229-6.791-0.6-10.148-1.082c-2.694-0.414-4.279-2.556-4.025-5.039   c0.273-2.671,1.999-4.233,4.783-4.373c0.644-0.047,1.288,0,1.932,0.047c12.866,0.756,25.725,1.566,38.609,1.106   c7.341-0.279,14.679-0.829,22.02-1.132c3.107-0.135,4.926,1.474,5.199,4.144c0.278,2.738-1.379,4.833-4.437,5.291   c-3.014,0.437-6.029,0.692-9.043,0.969c-4.255,0.414-4.279,0.389-2.947,4.349c13.255,39.39,26.511,78.801,39.784,118.196   C312.094,324.449,312.184,325.553,313.45,326.402z M256.826,267.774c-1.361,1.175-1.474,2.328-1.845,3.338   c-2.92,8.421-5.797,16.886-8.695,25.308c-7.984,23.218-15.967,46.433-24,69.647c-0.757,2.188-1.082,3.637,1.932,4.396   c22.321,5.66,44.407,5.13,66.381-1.773c2.21-0.711,2.576-1.607,1.795-3.77c-10.72-29.176-21.353-58.395-32.007-87.574   C259.265,274.242,258.09,271.179,256.826,267.774z M314.441,357.279c15.804-3.819,43.508-37.687,51.86-63.756   c10.147-31.613,7.434-62.237-7.525-92.033c-0.781,0.645-0.668,1.122-0.621,1.561c1.612,15.027-0.828,29.523-5.728,43.673   c-12.31,35.547-24.69,71.072-37.024,106.599C314.968,354.591,314.258,355.81,314.441,357.279z" fill="#2984B8"/></g></svg>