<?xml version="1.0" ?><!DOCTYPE svg  PUBLIC '-//W3C//DTD SVG 1.1//EN'  'http://www.w3.org/Graphics/SVG/1.1/DTD/svg11.dtd'><svg enable-background="new 0 0 512 512" height="512px"  version="1.1" viewBox="0 0 512 512" width="512px" xml:space="preserve" xmlns="http://www.w3.org/2000/svg" xmlns:xlink="http://www.w3.org/1999/xlink"><g id="youtube"><path d="M374.5,333.527v-35.075c0-24.097-19.133-43.951-43.215-43.951H179.729   c-24.098,0-43.229,19.854-43.229,43.951v35.075c0,24.082,19.132,43.973,43.229,43.973h151.556   C355.367,377.5,374.5,357.608,374.5,333.527z M211.5,282.5h-14v70h-14v-70h-14v-12h42V282.5z M251.5,352.5h-12v-6.992   c-2,2.442-4.654,4.292-7.064,5.603c-2.411,1.296-4.809,1.913-7.077,1.913c-2.798,0-5.089-0.893-6.528-2.687   c-1.407-1.834-2.331-4.489-2.331-8.101V291.5h12v46.563c0,1.423,0.491,2.458,0.981,3.09c0.522,0.648,1.447,0.956,2.593,0.956   c0.869,0,2.063-0.479,3.422-1.325c1.359-0.862,2.664-2.285,3.794-3.285h0.211v-46h12V352.5z M295.5,339.66   c0,4.276-1.099,7.548-2.996,9.848c-1.865,2.284-4.703,3.414-8.267,3.414c-2.379,0-4.623-0.435-6.457-1.312   c-1.849-0.885-3.279-2.245-5.279-4.11v5h-12v-82h12v26.11c2-1.834,3.449-3.256,5.259-4.213c1.834-0.956,3.736-1.438,5.617-1.438   c3.825,0,6.907,1.296,8.915,3.873c2.039,2.561,3.209,6.331,3.209,11.286V339.66z M306.193,348.812   c-3.106-3.304-4.693-7.872-4.693-13.704v-27.172c0-5.2,1.737-9.492,5.151-12.78c3.43-3.319,7.816-4.955,13.237-4.955   c5.524,0,9.987,1.525,12.967,4.576c2.972,3.074,4.644,7.453,4.644,13.167V323.5h-23v11.252c0,3.193,0.133,5.39,0.924,6.639   c0.806,1.217,2.043,1.818,3.971,1.818c2.007,0,3.268-0.522,4.05-1.557c0.782-1.035,1.055-3.335,1.055-6.9V332.5h13v2.607   c0,6.204-1.697,10.867-4.755,14.013c-3.011,3.122-7.641,4.679-13.663,4.679C313.668,353.799,309.299,352.131,306.193,348.812z" fill="#B30017"/><path d="M324.5,307.864c0-2.537-0.354-4.371-1.184-5.422c-0.822-1.13-2.157-1.668-3.974-1.668   c-1.928,0-3.533,0.537-4.379,1.668c-0.846,1.051-1.463,2.893-1.463,5.422v5.636h11V307.864z" fill="#B30017"/><path d="M277.723,300.554c-0.861,0-1.821,0.182-2.651,0.601c-0.83,0.379-1.572,1.004-2.572,1.849v37.652   c1,0.98,2.019,1.715,2.944,2.134c0.94,0.419,1.942,0.648,2.962,0.648c1.478,0,2.454-0.419,3.15-1.28   c0.695-0.846,0.945-2.221,0.945-4.165v-31.219c0-2.055-0.29-3.596-1.136-4.663C280.479,301.075,279.344,300.554,277.723,300.554z" fill="#B30017"/><polygon fill="#B30017" points="214.5,233.5 214.5,196.395 232.698,143.5 217.136,143.5 207.676,179.5 206.703,179.5    196.761,143.5 181.334,143.5 199.5,198.062 199.5,233.5  "/><path d="M284.5,167.5v55.379c0,3.999,0.714,6.963,2.286,8.923c1.604,1.992,3.921,2.995,7.067,2.995   c2.561,0,5.152-0.727,7.855-2.134c2.727-1.407,5.792-3.485,7.792-6.188v7.025h14v-66h-14v50.273c-1,1.47-2.662,2.656-4.171,3.612   c-1.541,0.925-2.801,1.407-3.789,1.407c-1.28,0-2.411-0.371-2.964-1.083c-0.569-0.695-1.075-1.826-1.075-3.414V167.5H284.5z" fill="#B30017"/><path d="M233.5,182.5v34.475c0,5.651,1.946,10.156,5.511,13.523c3.572,3.319,8.414,4.987,14.357,4.987   c6.18,0,11.172-1.62,14.721-4.845c3.501-3.225,5.411-7.682,5.411-13.396v-34.38c0-5.09-1.903-9.263-5.483-12.472   c-3.612-3.209-8.266-4.829-13.901-4.829c-6.173,0-11.124,1.557-14.799,4.584c-3.659,3.09-5.504,7.353-5.504,12.353H233.5z    M247.5,181.979c0-1.446,0.66-2.64,1.696-3.517c1.051-0.909,2.472-1.359,4.124-1.359c1.81,0,3.327,0.451,4.442,1.359   c1.114,0.877,1.739,2.063,1.739,3.517v36.277c0,1.77-0.586,3.177-1.668,4.213c-1.083,1.004-2.569,1.494-4.418,1.494   c-1.786,0-3.34-0.49-4.296-1.494c-0.972-0.988-1.617-2.395-1.617-4.213V181.979z" fill="#B30017"/><path d="M254.5,16.5c-131.996,0-239,107.004-239,239s107.004,239,239,239s239-107.004,239-239   S386.496,16.5,254.5,16.5z M412.892,413.892C370.584,456.2,314.333,479.5,254.5,479.5c-59.833,0-116.084-23.3-158.392-65.608   C53.8,371.584,30.5,315.333,30.5,255.5c0-59.833,23.3-116.084,65.608-158.392C138.416,54.8,194.667,31.5,254.5,31.5   c59.833,0,116.084,23.3,158.392,65.608C455.2,139.416,478.5,195.667,478.5,255.5C478.5,315.333,455.2,371.584,412.892,413.892z" fill="#B30017"/></g></svg>