<svg xmlns="http://www.w3.org/2000/svg" viewBox="0 0 182.83 148.71"><defs><style>.cls-1{fill:#6abd45;}.cls-2{fill:#fff;}</style></defs><title>img-headerAsset 1</title><g id="Layer_2" data-name="Layer 2"><g id="Layer_1-2" data-name="Layer 1"><path class="cls-1" d="M91.51,148.67c-23,0-46,0-69,0a4.27,4.27,0,0,1-3.87-2A88.09,88.09,0,0,1,1.24,106.64c-3.47-22,.29-42.71,11.81-61.88C27.21,21.21,48,6.81,74.8,1.7s51.37,1.46,73.11,18A87.79,87.79,0,0,1,172,48.52a89.7,89.7,0,0,1,10.43,52.06,89.06,89.06,0,0,1-18.91,47.14c-.89,1.14-1.88.94-2.94.94Z"/><path class="cls-2" d="M114.26,45.92c0,23.65.22,46.67-.1,69.68-.14,9.64-5.68,16.36-14.45,20-8.43,3.46-16.42,1.92-23.25-4.08-10.17-8.94-10.4-22.75-1.49-33,5.81-6.68,10.73-14.13,16-21.25q11-14.8,21.93-29.63C113.23,47.16,113.58,46.77,114.26,45.92Z"/><path class="cls-2" d="M45.65,57.22A11.43,11.43,0,1,1,57.12,45.79,11.49,11.49,0,0,1,45.65,57.22Z"/><path class="cls-2" d="M125.72,45.72a11.43,11.43,0,1,1,11.16,11.5A11.49,11.49,0,0,1,125.72,45.72Z"/><path class="cls-2" d="M22.84,102.94A11.43,11.43,0,1,1,34.26,91.46,11.49,11.49,0,0,1,22.84,102.94Z"/><path class="cls-2" d="M159.91,102.94a11.43,11.43,0,1,1,11.52-11.38A11.49,11.49,0,0,1,159.91,102.94Z"/><path class="cls-2" d="M91.41,34.36a11.43,11.43,0,1,1,11.43-11.47A11.47,11.47,0,0,1,91.41,34.36Z"/><path class="cls-1" d="M91.15,125.8c-5.86,0-11.12-5.32-11.15-11.37a11.42,11.42,0,1,1,22.84,0A11.67,11.67,0,0,1,91.15,125.8Z"/></g></g></svg>