<?xml version="1.0" encoding="UTF-8"?>
<svg width="24px" height="24px" viewBox="0 0 24 24" version="1.1" xmlns="http://www.w3.org/2000/svg" xmlns:xlink="http://www.w3.org/1999/xlink">
    <!-- Generator: sketchtool 54.1 (76490) - https://sketchapp.com -->
    <title>E864E267-D5C1-44AF-A54A-C822AE929B8F</title>
    <desc>Created with sketchtool.</desc>
    <g id="Page-1" stroke="none" stroke-width="1" fill="none" fill-rule="evenodd">
        <g id="1" transform="translate(-1356.000000, -146.000000)">
            <g id="!" transform="translate(1356.000000, 146.000000)">
                <circle id="O" fill="#FF6666" cx="12" cy="12" r="12"></circle>
                <path d="M12.9429024,5 C12.9614031,5 12.9799002,5.00051341 12.9983724,5.00153965 C13.5498069,5.03217489 13.971998,5.50403559 13.9413628,6.05547002 L13.527735,13.5007698 C13.5102754,13.8150425 13.3458688,14.1027542 13.0839749,14.2773501 L12.75,14.5 C12.2958365,14.8027756 11.7041635,14.8027756 11.25,14.5 L10.9160251,14.2773501 C10.6541312,14.1027542 10.4897246,13.8150425 10.472265,13.5007698 L10.0586372,6.05547002 C10.057611,6.03699782 10.0570976,6.01850069 10.0570976,6 C10.0570976,5.44771525 10.5048128,5 11.0570976,5 L12.9429024,5 Z M12,19 C11.1715729,19 10.5,18.3284271 10.5,17.5 C10.5,16.6715729 11.1715729,16 12,16 C12.8284271,16 13.5,16.6715729 13.5,17.5 C13.5,18.3284271 12.8284271,19 12,19 Z" fill="#FFFFFF"></path>
            </g>
        </g>
    </g>
</svg>