<?xml version="1.0" encoding="UTF-8" standalone="no"?>
<svg width="250px" height="250px" viewBox="0 0 250 250" version="1.1" xmlns="http://www.w3.org/2000/svg" xmlns:xlink="http://www.w3.org/1999/xlink">
    <!-- Generator: Sketch 48.2 (47327) - http://www.bohemiancoding.com/sketch -->
    <title>Group 2</title>
    <desc>Created with Sketch.</desc>
    <defs></defs>
    <g id="Page-1" stroke="none" stroke-width="1" fill="none" fill-rule="evenodd">
        <g id="Group-2">
            <circle id="Oval-Copy" fill="#156EB4" cx="125" cy="125" r="125"></circle>
            <g id="Group-4" transform="translate(60.000000, 55.500000)" fill="#FFFFFF">
                <path d="M0,104.5 L131,104.5 L131,138.516588 L0,138.516588 L0,104.5 Z M0,64.5 L131,64.5 L131,98.5165877 L0,98.5165877 L0,64.5 Z M0,23.5 L131,23.5 L131,58.5 L0,58.5 L0,23.5 Z" id="Combined-Shape"></path>
                <polygon id="Rectangle-2-Copy-3" opacity="0.900000036" points="29 -3.55271368e-15 101.5 -3.55271368e-15 131 23.5 0 23.5"></polygon>
            </g>
            <circle id="Oval-3" fill="#74a345" cx="195" cy="194.5" r="55"></circle>
            <g id="Group" transform="translate(158.500000, 163.500000)" fill="#FFFFFF" fill-rule="nonzero">
                <path d="M72.59375,45.3722453 C72.59375,45.7644625 72.4544994,46.1006488 72.1759983,46.380804 L56.1343316,61.2570446 C55.6887297,61.6492619 55.2013527,61.7333084 54.6722005,61.5091843 C54.1430483,61.2570446 53.8784722,60.8508196 53.8784722,60.2905092 L53.8784722,50.8772948 L31.7430556,50.8772948 C31.3531539,50.8772948 31.0328776,50.7512249 30.7822266,50.4990853 C30.5315755,50.2469456 30.40625,49.9247671 30.40625,49.5325499 L30.40625,41.4640804 C30.40625,41.0718631 30.5315755,40.7496846 30.7822266,40.497545 C31.0328776,40.2454053 31.3531539,40.1193354 31.7430556,40.1193354 L53.8784722,40.1193354 L53.8784722,30.706121 C53.8784722,30.1177951 54.1430483,29.7115701 54.6722005,29.4874459 C55.2013527,29.2633218 55.6887297,29.3333606 56.1343316,29.6975623 L72.1759983,44.4057099 C72.4544994,44.6858651 72.59375,45.0080435 72.59375,45.3722453 Z" id="Shape"></path>
                <path d="M42.59375,16.4972453 C42.59375,16.8894625 42.4544994,17.2256488 42.1759983,17.505804 L26.1343316,32.3820446 C25.6887297,32.7742619 25.2013527,32.8583084 24.6722005,32.6341843 C24.1430483,32.3820446 23.8784722,31.9758196 23.8784722,31.4155092 L23.8784722,22.0022948 L1.74305556,22.0022948 C1.35315394,22.0022948 1.0328776,21.8762249 0.782226563,21.6240853 C0.531575521,21.3719456 0.40625,21.0497671 0.40625,20.6575499 L0.40625,12.5890804 C0.40625,12.1968631 0.531575521,11.8746846 0.782226563,11.622545 C1.0328776,11.3704053 1.35315394,11.2443354 1.74305556,11.2443354 L23.8784722,11.2443354 L23.8784722,1.83112103 C23.8784722,1.24279512 24.1430483,0.836570097 24.6722005,0.612445944 C25.2013527,0.388321792 25.6887297,0.458360589 26.1343316,0.822562338 L42.1759983,15.5307099 C42.4544994,15.8108651 42.59375,16.1330435 42.59375,16.4972453 Z" id="Shape-Copy-2" transform="translate(21.500000, 16.620404) rotate(-180.000000) translate(-21.500000, -16.620404) "></path>
            </g>
            <circle id="Oval" fill="#D8D8D8" cx="75.75" cy="96.75" r="4.25"></circle>
            <circle id="Oval-Copy-2" fill="#D8D8D8" cx="75.75" cy="136.75" r="4.25"></circle>
            <circle id="Oval-Copy-3" fill="#D8D8D8" cx="75.75" cy="177.25" r="4.25"></circle>
            <circle id="Oval" fill="#D8D8D8" opacity="0.5" cx="86.75" cy="96.75" r="4.25"></circle>
            <circle id="Oval-Copy-2" fill="#D8D8D8" opacity="0.5" cx="86.75" cy="136.75" r="4.25"></circle>
            <circle id="Oval-Copy-3" fill="#D8D8D8" opacity="0.5" cx="86.75" cy="177.25" r="4.25"></circle>
            <circle id="Oval" fill="#D8D8D8" opacity="0.25" cx="97.75" cy="96.75" r="4.25"></circle>
            <circle id="Oval-Copy-2" fill="#D8D8D8" opacity="0.25" cx="97.75" cy="136.75" r="4.25"></circle>
            <circle id="Oval-Copy-3" fill="#D8D8D8" opacity="0.25" cx="97.75" cy="177.25" r="4.25"></circle>
        </g>
    </g>
</svg>