<?xml version="1.0" encoding="UTF-8" standalone="no"?>
<svg width="250px" height="250px" viewBox="0 0 250 250" version="1.1" xmlns="http://www.w3.org/2000/svg" xmlns:xlink="http://www.w3.org/1999/xlink">
    <!-- Generator: Sketch 48.2 (47327) - http://www.bohemiancoding.com/sketch -->
    <title>Staging-red</title>
    <desc>Created with Sketch.</desc>
    <defs></defs>
    <g id="Page-1" stroke="none" stroke-width="1" fill="none" fill-rule="evenodd">
        <g id="Staging-red">
            <circle id="Circle-bg" fill="#156EB4" cx="125" cy="125" r="125"></circle>
            <path d="M60,160 L191,160 L191,194.016588 L60,194.016588 L60,160 Z M60,120 L191,120 L191,154.016588 L60,154.016588 L60,120 Z M60,79 L191,79 L191,114 L60,114 L60,79 Z" id="Combined-Shape" fill="#FFFFFF"></path>
            <polygon id="server-top" fill="#FFFFFF" opacity="0.900000036" points="89 55.5 161.5 55.5 191 79 60 79"></polygon>
            <circle id="Circle-Small" fill="#ff7e7e" cx="195" cy="195" r="55"></circle>
            <path d="M187.928932,195 L168.129942,175.20101 C167.348894,174.419962 167.348894,173.153632 168.129942,172.372583 L172.372583,168.129942 C173.153632,167.348894 174.419962,167.348894 175.20101,168.129942 L195,187.928932 L214.79899,168.129942 C215.580038,167.348894 216.846368,167.348894 217.627417,168.129942 L221.870058,172.372583 C222.651106,173.153632 222.651106,174.419962 221.870058,175.20101 L202.071068,195 L221.870058,214.79899 C222.651106,215.580038 222.651106,216.846368 221.870058,217.627417 L217.627417,221.870058 C216.846368,222.651106 215.580038,222.651106 214.79899,221.870058 L195,202.071068 L175.20101,221.870058 C174.419962,222.651106 173.153632,222.651106 172.372583,221.870058 L168.129942,217.627417 C167.348894,216.846368 167.348894,215.580038 168.129942,214.79899 L187.928932,195 Z" id="Combined-Shape" fill="#FFFFFF"></path>
            <path d="M75.75,181.5 C73.4027898,181.5 71.5,179.59721 71.5,177.25 C71.5,174.90279 73.4027898,173 75.75,173 C78.0972102,173 80,174.90279 80,177.25 C80,179.59721 78.0972102,181.5 75.75,181.5 Z M75.75,141 C73.4027898,141 71.5,139.09721 71.5,136.75 C71.5,134.40279 73.4027898,132.5 75.75,132.5 C78.0972102,132.5 80,134.40279 80,136.75 C80,139.09721 78.0972102,141 75.75,141 Z M75.75,101 C73.4027898,101 71.5,99.0972102 71.5,96.75 C71.5,94.4027898 73.4027898,92.5 75.75,92.5 C78.0972102,92.5 80,94.4027898 80,96.75 C80,99.0972102 78.0972102,101 75.75,101 Z" id="Combined-Shape" fill="#D8D8D8"></path>
            <path d="M86.75,181.5 C84.4027898,181.5 82.5,179.59721 82.5,177.25 C82.5,174.90279 84.4027898,173 86.75,173 C89.0972102,173 91,174.90279 91,177.25 C91,179.59721 89.0972102,181.5 86.75,181.5 Z M86.75,141 C84.4027898,141 82.5,139.09721 82.5,136.75 C82.5,134.40279 84.4027898,132.5 86.75,132.5 C89.0972102,132.5 91,134.40279 91,136.75 C91,139.09721 89.0972102,141 86.75,141 Z M86.75,101 C84.4027898,101 82.5,99.0972102 82.5,96.75 C82.5,94.4027898 84.4027898,92.5 86.75,92.5 C89.0972102,92.5 91,94.4027898 91,96.75 C91,99.0972102 89.0972102,101 86.75,101 Z" id="Combined-Shape" fill="#D8D8D8" opacity="0.5"></path>
            <path d="M97.75,181.5 C95.4027898,181.5 93.5,179.59721 93.5,177.25 C93.5,174.90279 95.4027898,173 97.75,173 C100.09721,173 102,174.90279 102,177.25 C102,179.59721 100.09721,181.5 97.75,181.5 Z M97.75,141 C95.4027898,141 93.5,139.09721 93.5,136.75 C93.5,134.40279 95.4027898,132.5 97.75,132.5 C100.09721,132.5 102,134.40279 102,136.75 C102,139.09721 100.09721,141 97.75,141 Z M97.75,101 C95.4027898,101 93.5,99.0972102 93.5,96.75 C93.5,94.4027898 95.4027898,92.5 97.75,92.5 C100.09721,92.5 102,94.4027898 102,96.75 C102,99.0972102 100.09721,101 97.75,101 Z" id="Combined-Shape" fill="#D8D8D8" opacity="0.25"></path>
        </g>
    </g>
</svg>