<?xml version="1.0" encoding="UTF-8" standalone="no"?>
<svg width="100px" height="93px" viewBox="19 0 100 93" version="1.1" xmlns="http://www.w3.org/2000/svg" xmlns:xlink="http://www.w3.org/1999/xlink">
    <title>favicon svg</title>
    <defs>
        <linearGradient x1="11.5328425%" y1="30.4253472%" x2="57.4232415%" y2="51.0279629%" id="linearGradient-1">
            <stop stop-color="#ECFFCF" offset="0%"></stop>
            <stop stop-color="#E5FBBD" offset="8.2%"></stop>
            <stop stop-color="#AFDF36" offset="72.06%"></stop>
            <stop stop-color="#99D400" offset="100%"></stop>
        </linearGradient>
    </defs>
    <g id="Page-1" stroke="none" stroke-width="1" fill="none" fill-rule="evenodd">
        <g id="128-copy" fill-rule="nonzero">
            <g id="Group-2">

                <g id="swirl" transform="translate(20.846715, 0.000000)">
                    <path d="M2.53343075,45.3906337 C2.53343075,40.7315294 3.42994409,36.1459193 5.20066945,31.7718846 C7.83668631,25.2576015 12.2434285,19.7811495 17.9503381,15.9148946 C23.0082791,12.4940609 28.8579172,10.5230727 34.8681248,10.2313219 L36.3846151,10.2068237 C39.0942264,10.2068237 41.8216786,10.5542521 44.5067583,11.2468819 C58.9134155,14.9973272 69.4597131,28.3666404 70.1443638,43.7782094 L70.1822761,45.4017691 C70.1822761,50.2947196 69.2032479,55.0184098 67.3834596,59.3434483 C70.3584565,55.7511277 72.1804749,51.2746459 72.5484469,46.5153217 C72.5573674,46.3148824 72.5752086,45.1612417 72.5752086,45.1612417 L72.5462168,43.6289933 C72.4971539,42.6824736 72.4101788,41.6735948 72.278601,40.5578149 C70.2224185,23.2331627 57.4705197,9.50751263 41.2708358,7.17573336 C39.6361484,6.93520598 37.9858502,6.81939651 36.3712342,6.81939651 L34.7789196,6.85948439 C27.2633722,7.22250257 20.1470188,9.98856739 14.2037152,14.8547925 C10.6154317,17.8012529 7.61144291,21.3802111 5.27426385,25.4758578 C1.85324028,31.4756796 0.0490629195,38.3574349 0.0490629195,45.3527729 L0.0869751755,47.1923617 C0.417034815,54.8402415 2.8634904,62.1139675 7.14534517,68.2607781 L7.14757532,68.2607781 C7.98833534,69.4634151 8.91607054,70.5947844 9.87502762,71.6905203 C5.46605526,64.2564429 2.95046556,55.8068052 2.56688274,47.0030579 L2.53343075,45.3906337 Z" id="Shape" fill="#282827"></path>
                    <path d="M52.6913455,0.369699484 C51.9955439,0.369699484 51.3086631,0.403106064 50.6217823,0.440966854 C50.3407855,0.458783696 50.0530983,0.476600538 49.7721018,0.498871592 C48.1530252,0.616908175 46.5540203,0.824028969 44.9929273,1.12468819 C63.7751049,4.77714092 78.2174443,21.4915664 79.7317045,41.8695799 C79.8722028,43.0276749 79.9703285,44.196905 79.9703285,45.3928608 C79.9703285,46.5932704 79.8722028,47.7714092 79.7317045,48.9228226 C78.0591048,63.1206191 66.4914065,74.0868857 52.6913455,74.0868857 C51.0611184,74.0868857 49.4643433,73.9287612 47.9210915,73.6414645 C47.1004028,73.4900215 46.3064755,73.2940361 45.5192385,73.0668715 C45.322987,73.0245565 45.140116,72.9644245 44.9483247,72.9065199 C44.2592138,72.697172 43.5834835,72.4432819 42.9166738,72.1738023 C42.4951787,72.0045423 42.0781438,71.8352823 41.6633391,71.6437511 C40.7110726,71.2161469 39.7855674,70.7306381 38.8935144,70.2005869 C34.1544823,67.3120313 30.3298048,62.9959012 27.945793,57.8045186 C26.2219003,54.0518461 25.225031,49.8470713 25.225031,45.3906337 C25.225031,40.9497856 26.2219003,36.7450106 27.945793,32.9789755 C30.3298048,27.7809119 34.1544823,23.4536462 38.8912843,20.5628634 C39.544713,20.1686658 40.2271336,19.8078747 40.920705,19.4671276 C41.0723539,19.3914061 41.2217729,19.3090031 41.3734218,19.24219 C42.3948228,18.7544539 43.4496753,18.3290768 44.5312898,17.9816484 L44.9483247,17.8368865 C42.5130196,17.0729894 39.9416768,16.6542936 37.2945092,16.6542936 L37.006822,16.6542936 C32.0737686,16.705517 27.4663143,18.1353187 23.494448,20.5606363 C18.7464955,23.451419 14.9307385,27.7786846 12.5489567,32.9767484 C10.8272943,36.7427835 9.83042496,40.9475586 9.83042496,45.3884066 C9.83042496,54.557399 12.4508309,63.1005751 16.9579291,70.2339935 C19.1010866,73.6191936 21.6679694,76.672555 24.5782925,79.3272646 C25.6599069,80.3183263 26.7749733,81.2381209 27.9391024,82.111146 C30.5126756,84.0220026 33.3070319,85.6344268 36.2708783,86.9172394 C37.3480323,87.3782503 38.4452576,87.8036274 39.5625542,88.1777811 C41.1950112,88.7278761 42.8609205,89.1866598 44.5692021,89.5229528 L44.9929273,89.6231724 C45.322987,89.6833041 45.6686576,89.7278462 46.0076377,89.783524 L46.5116477,89.8748353 C48.5299177,90.1844029 50.58387,90.3670257 52.6913455,90.3670257 C76.2393165,90.3670257 95.2846499,70.1092756 95.2846499,45.3906337 C95.2846499,20.6875813 76.2393165,0.369699484 52.6913455,0.369699484 Z M52.6913455,85.9573569 C50.9072391,85.9573569 49.1030619,85.8148223 47.2208297,85.5230715 L46.3622287,85.3805368 L45.8515284,85.2981339 C45.7377915,85.2691815 45.5393099,85.2290936 45.5393099,85.2290936 L45.4389537,85.2112768 C43.9670663,84.9061635 42.4617266,84.5164198 40.9675378,84.0108669 C37.2164545,82.7480984 33.728527,80.926326 30.5728894,78.5811842 C29.5648693,77.8373309 28.5501589,76.9999395 27.5577497,76.0912804 C24.9172727,73.6815524 22.6113155,70.9243961 20.6889411,67.8866244 C16.46953,61.2097628 14.2416274,53.4416193 14.2416274,45.3928608 C14.2416274,41.7314995 15.0177136,38.1659039 16.5631956,34.8163376 C18.5792356,30.3999875 21.7750157,26.7787144 25.7892546,24.3222172 C27.0358987,23.5672285 28.3494469,22.9748185 29.7009074,22.4737198 C27.3637283,25.014847 25.4168224,27.9279007 23.931554,31.1416137 C21.8619909,35.6604105 20.8160587,40.4598224 20.8160587,45.3906337 C20.8160587,50.3370346 21.8686813,55.1275381 23.931554,59.6374262 C26.6924583,65.6483835 31.0768991,70.5970115 36.6098585,73.9621678 C37.2454463,74.347457 37.9167163,74.7149295 38.6058272,75.066812 C39.0094813,75.2717057 39.408675,75.4765995 39.8234797,75.6636762 C40.0710245,75.7817129 40.3297199,75.8774783 40.5817249,75.9821524 C41.5897449,76.4119837 42.6156059,76.8084083 43.677149,77.1313387 L44.3082766,77.3139613 C45.238242,77.5745325 46.1838182,77.8016974 47.104863,77.9687304 C48.9536429,78.3206129 50.8381052,78.4965542 52.6913455,78.4965542 C68.6524051,78.4965542 82.162549,66.0114018 84.1139151,49.457328 C84.2945558,47.9339879 84.3770707,46.6511751 84.3770707,45.3950879 C84.3770707,44.1924508 84.2967859,42.9541803 84.1339865,41.5110161 C83.1571884,28.4223182 77.2830187,16.6921544 68.3825591,8.4140039 C81.625087,14.7991149 90.8712174,28.9545962 90.8712174,45.3950879 C90.8712174,67.7574523 73.7415679,85.9573569 52.6913455,85.9573569 Z" id="Shape" fill="#282827"></path>
                    <path d="M52.6913455,85.9573569 C50.9072391,85.9573569 49.1030619,85.8148223 47.2208297,85.5230715 L46.3622287,85.3805368 L45.8515284,85.2981339 C45.7377915,85.2691815 45.5393099,85.2290936 45.5393099,85.2290936 L45.4389537,85.2112768 C43.9670663,84.9061635 42.4617266,84.5164198 40.9675378,84.0108669 C37.2164545,82.7480984 33.728527,80.926326 30.5728894,78.5811842 C29.5648693,77.8373309 28.5501589,76.9999395 27.5577497,76.0912804 C24.9172727,73.6815524 22.6113155,70.9243961 20.6889411,67.8866244 C16.46953,61.2097628 14.2416274,53.4416193 14.2416274,45.3928608 C14.2416274,41.7314995 15.0177136,38.1659039 16.5631956,34.8163376 C18.5792356,30.3999875 21.7750157,26.7787144 25.7892546,24.3222172 C27.0358987,23.5672285 28.3494469,22.9748185 29.7009074,22.4737198 C27.3637283,25.014847 25.4168224,27.9279007 23.931554,31.1416137 C21.8619909,35.6604105 20.8160587,40.4598224 20.8160587,45.3906337 C20.8160587,50.3370346 21.8686813,55.1275381 23.931554,59.6374262 C26.6924583,65.6483835 31.0768991,70.5970115 36.6098585,73.9621678 C37.2454463,74.347457 37.9167163,74.7149295 38.6058272,75.066812 C39.0094813,75.2717057 39.408675,75.4765995 39.8234797,75.6636762 C40.0710245,75.7817129 40.3297199,75.8774783 40.5817249,75.9821524 C41.5897449,76.4119837 42.6156059,76.8084083 43.677149,77.1313387 L44.3082766,77.3139613 C45.238242,77.5745325 46.1838182,77.8016974 47.104863,77.9687304 C48.9536429,78.3206129 50.8381052,78.4965542 52.6913455,78.4965542 C68.6524051,78.4965542 82.162549,66.0114018 84.1139151,49.457328 C84.2945558,47.9339879 84.3770707,46.6511751 84.3770707,45.3950879 C84.3770707,44.1924508 84.2967859,42.9541803 84.1339865,41.5110161 C83.1571884,28.4223182 77.2830187,16.6921544 68.3825591,8.4140039 C81.625087,14.7991149 90.8712174,28.9545962 90.8712174,45.3950879 C90.8712174,67.7574523 73.7415679,85.9573569 52.6913455,85.9573569 Z" id="Shape" fill="url(#linearGradient-1)"></path>
                </g>
            </g>
        </g>
    </g>
</svg>