<?xml version="1.0" encoding="UTF-8" standalone="no"?>
<svg width="136px" height="121px" viewBox="0 0 136 121" version="1.1" xmlns="http://www.w3.org/2000/svg" xmlns:xlink="http://www.w3.org/1999/xlink">
    <!-- Generator: Sketch 43.2 (39069) - http://www.bohemiancoding.com/sketch -->
    <title>128 copy</title>
    <desc>Created with Sketch.</desc>
    <defs>
        <linearGradient x1="11.5328425%" y1="30.4253472%" x2="57.4232415%" y2="51.0279629%" id="linearGradient-1">
            <stop stop-color="#ECFFCF" offset="0%"></stop>
            <stop stop-color="#E5FBBD" offset="8.2%"></stop>
            <stop stop-color="#AFDF36" offset="72.06%"></stop>
            <stop stop-color="#99D400" offset="100%"></stop>
        </linearGradient>
    </defs>
    <g id="Page-1" stroke="none" stroke-width="1" fill="none" fill-rule="evenodd">
        <g id="128-copy" fill-rule="nonzero">
            <g id="Group-2">
                <g id="Group" transform="translate(0.000000, 101.255474)" fill="#282827">
                    <path d="M51.2114591,0.251429628 C48.5709673,0.251429628 46.1851554,1.27343329 44.4630955,2.980734 C42.7344377,4.68407344 41.6734903,7.07535076 41.6734903,9.7954122 C41.6734903,12.4798223 42.6790151,14.865818 44.4287862,16.5665167 C46.1745987,18.2711764 48.6633382,19.279976 51.5809433,19.279976 C55.1042382,19.2878985 57.6220087,18.0704728 59.282048,16.0766415 L59.489223,15.8284028 L56.9754114,13.3737455 L56.7299684,13.647072 C55.6070005,14.913353 54.151497,15.8059557 51.5281597,15.8138783 C49.8958316,15.8138783 48.5828435,15.3517319 47.6129476,14.5159072 C46.7301445,13.7513851 46.1402896,12.6726034 45.8644961,11.3152135 L60.4182117,11.3152135 L60.42349,10.9679435 L60.4287683,10.6919761 C60.4287683,7.69990856 59.5591611,5.09208267 57.9664205,3.22105011 C56.3736801,1.35794006 54.043291,0.251429628 51.2114591,0.251429628 Z M47.6683703,4.96268168 C48.5762456,4.17307161 49.7691514,3.72280901 51.2114591,3.72280901 C52.7791274,3.7294111 53.9337652,4.21796582 54.7690634,5.03002301 C55.5172688,5.756253 55.9936394,6.75316873 56.2390823,7.90193254 L45.9819391,7.90193254 C46.2775264,6.68054573 46.8515464,5.67306665 47.6683703,4.96268168 Z" id="Shape"></path>
                    <path d="M81.3481676,13.6972479 C80.2806224,14.8605363 78.751222,15.7584206 76.4604205,15.7584206 C74.8597625,15.7584206 73.5612897,15.1193383 72.6402187,14.0590425 C71.7217867,12.993465 71.184715,11.5040333 71.184715,9.7954122 C71.184715,8.0590623 71.7231062,6.555106 72.6402187,5.48160602 C73.5599701,4.41866939 74.8597625,3.77562574 76.4604205,3.77562574 C78.3883359,3.77562574 79.8755095,4.47940862 80.9232609,5.62685202 L81.155508,5.88433356 L83.8593401,3.44288035 L83.6178557,3.18539882 C81.9169093,1.310405 79.6129119,0.25010921 76.4604205,0.25010921 C73.8186091,0.25010921 71.4723849,1.27211288 69.7872734,2.98205442 C68.1048011,4.68275302 67.0834413,7.07270992 67.0834413,9.79409179 C67.0834413,12.4877449 68.1034815,14.8644976 69.7872734,16.5651961 C71.4710653,18.2540111 73.8186091,19.2786556 76.4604205,19.2786556 C79.8306435,19.2865781 82.3404963,18.1246101 84.0533193,16.0753211 L84.2736902,15.8046353 L81.5804148,13.4424072 L81.3481676,13.6972479 Z" id="Shape"></path>
                    <path d="M93.9211844,0.251429628 C91.2318679,0.251429628 88.8183449,1.27343329 87.0791302,2.980734 C85.3425549,4.68407344 84.2802881,7.07535076 84.2802881,9.7954122 C84.2802881,12.4969878 85.3478332,14.8710997 87.0791302,16.5665167 C88.8183449,18.2658948 91.2318679,19.279976 93.9211844,19.279976 C96.5867486,19.279976 98.9844365,18.2658948 100.714414,16.5665167 C102.445711,14.8724201 103.507978,12.4969878 103.507978,9.7954122 C103.507978,7.07535076 102.447031,4.68407344 100.718373,2.980734 C98.9844365,1.27343329 96.5867486,0.251429628 93.9211844,0.251429628 Z M89.9267972,5.44067307 C90.8980126,4.36981392 92.2651038,3.72148859 93.9211844,3.72148859 C95.5785846,3.72148859 96.9443564,4.3684935 97.9168914,5.44067307 C98.8881067,6.51681386 99.4568484,8.04321728 99.4568484,9.7954122 C99.4410133,13.2562282 97.2201499,15.8046353 93.9211844,15.8125578 C90.6235387,15.8046353 88.3973968,13.2562282 88.3842009,9.7954122 C88.3842009,8.04321728 88.9542622,6.51681386 89.9267972,5.44067307 Z" id="Shape"></path>
                    <path d="M9.88861874,0.251429628 C7.19798258,0.251429628 4.78709867,1.27343329 3.05052329,2.980734 C1.31130875,4.68407344 0.251681069,7.07535076 0.251681069,9.7954122 C0.251681069,12.4969878 1.31262833,14.8710997 3.05052329,16.5665167 C4.78709867,18.2658948 7.19798258,19.279976 9.88861874,19.279976 C12.5515436,19.279976 14.95451,18.2658948 16.6831679,16.5665167 C18.4184236,14.8724201 19.4806904,12.4969878 19.4806904,9.7954122 C19.4806904,7.07535076 18.4184236,4.68407344 16.6831679,2.980734 C14.95451,1.27343329 12.5515436,0.251429628 9.88861874,0.251429628 Z M5.89423146,5.44067307 C6.86676645,4.36981392 8.23517728,3.72148859 9.88861874,3.72148859 C11.5512973,3.72148859 12.9157494,4.3684935 13.8882844,5.44067307 C14.8542215,6.51681386 15.4269219,8.04321728 15.4269219,9.7954122 C15.4110868,13.2562282 13.1875841,15.8046353 9.88861874,15.8125578 C6.59229253,15.8046353 4.36747028,13.2562282 4.35031566,9.7954122 C4.35031566,8.04321728 4.92565521,6.51681386 5.89423146,5.44067307 Z" id="Shape"></path>
                    <path d="M37.3201757,2.980734 C35.5888787,1.27343329 33.1859123,0.251429628 30.5229874,0.251429628 C27.8323512,0.251429628 25.4214673,1.27343329 23.6822528,2.980734 C21.9443579,4.68407344 20.8834105,7.07535076 20.8834105,9.7954122 L20.8834105,19.2786556 L24.9860039,19.2786556 L24.9860039,9.7954122 C24.9860039,8.04321728 25.5573848,6.51681386 26.5272805,5.44067307 C27.4971763,4.36981392 28.8669068,3.72148859 30.5229874,3.72148859 C32.1830268,3.72148859 33.5474788,4.3684935 34.522653,5.44067307 C35.485951,6.51681386 36.059971,8.04321728 36.059971,9.7954122 L36.059971,19.2786556 L40.1124199,19.2786556 L40.1124199,9.7954122 C40.1124199,7.07403035 39.0527923,4.68407344 37.3201757,2.980734 Z" id="Shape"></path>
                    <path d="M133.371532,2.72853412 C131.636276,1.02123342 129.734753,0.251429628 127.044116,0.251429628 C124.35348,0.251429628 122.453276,1.02123342 120.716701,2.72853412 C120.588701,2.85133301 120.469938,2.98337483 120.351175,3.11805749 C120.236372,2.98337483 120.118928,2.85133301 119.990928,2.72853412 C118.255673,1.02123342 116.352829,0.251429628 113.662193,0.251429628 C110.972877,0.251429628 109.071353,1.02123342 107.332138,2.72853412 C105.594244,4.4345144 104.919935,7.07403035 104.919935,9.7954122 L104.919935,19.2786556 L109.019889,19.2786556 L109.019889,9.7954122 C109.019889,7.11760414 109.228384,6.44815212 110.136259,5.30995165 C110.759104,4.53222535 112.007432,3.72148859 113.662193,3.72148859 C115.316954,3.72148859 116.566602,4.53090494 117.188127,5.30995165 C118.097322,6.44815212 118.304497,7.11760414 118.304497,9.7954122 L118.304497,19.2786556 L122.404451,19.2786556 L122.404451,9.7954122 C122.404451,7.11760414 122.612946,6.44815212 123.519502,5.30995165 C124.143666,4.53222535 125.390675,3.72148859 127.045436,3.72148859 C128.701517,3.72148859 129.952484,4.53090494 130.574009,5.30995165 C131.479245,6.44815212 131.68906,7.11760414 131.68906,9.7954122 L131.68906,19.2786556 L135.789014,19.2786556 L135.789014,9.7954122 C135.787694,7.07403035 135.114705,4.4345144 133.371532,2.72853412 Z" id="Shape"></path>
                    <ellipse id="Oval" cx="63.8385789" cy="17.1659864" rx="2.11265743" ry="2.1139895"></ellipse>
                </g>
                <g id="swirl" transform="translate(20.846715, 0.000000)">
                    <path d="M2.53343075,45.3906337 C2.53343075,40.7315294 3.42994409,36.1459193 5.20066945,31.7718846 C7.83668631,25.2576015 12.2434285,19.7811495 17.9503381,15.9148946 C23.0082791,12.4940609 28.8579172,10.5230727 34.8681248,10.2313219 L36.3846151,10.2068237 C39.0942264,10.2068237 41.8216786,10.5542521 44.5067583,11.2468819 C58.9134155,14.9973272 69.4597131,28.3666404 70.1443638,43.7782094 L70.1822761,45.4017691 C70.1822761,50.2947196 69.2032479,55.0184098 67.3834596,59.3434483 C70.3584565,55.7511277 72.1804749,51.2746459 72.5484469,46.5153217 C72.5573674,46.3148824 72.5752086,45.1612417 72.5752086,45.1612417 L72.5462168,43.6289933 C72.4971539,42.6824736 72.4101788,41.6735948 72.278601,40.5578149 C70.2224185,23.2331627 57.4705197,9.50751263 41.2708358,7.17573336 C39.6361484,6.93520598 37.9858502,6.81939651 36.3712342,6.81939651 L34.7789196,6.85948439 C27.2633722,7.22250257 20.1470188,9.98856739 14.2037152,14.8547925 C10.6154317,17.8012529 7.61144291,21.3802111 5.27426385,25.4758578 C1.85324028,31.4756796 0.0490629195,38.3574349 0.0490629195,45.3527729 L0.0869751755,47.1923617 C0.417034815,54.8402415 2.8634904,62.1139675 7.14534517,68.2607781 L7.14757532,68.2607781 C7.98833534,69.4634151 8.91607054,70.5947844 9.87502762,71.6905203 C5.46605526,64.2564429 2.95046556,55.8068052 2.56688274,47.0030579 L2.53343075,45.3906337 Z" id="Shape" fill="#282827"></path>
                    <path d="M52.6913455,0.369699484 C51.9955439,0.369699484 51.3086631,0.403106064 50.6217823,0.440966854 C50.3407855,0.458783696 50.0530983,0.476600538 49.7721018,0.498871592 C48.1530252,0.616908175 46.5540203,0.824028969 44.9929273,1.12468819 C63.7751049,4.77714092 78.2174443,21.4915664 79.7317045,41.8695799 C79.8722028,43.0276749 79.9703285,44.196905 79.9703285,45.3928608 C79.9703285,46.5932704 79.8722028,47.7714092 79.7317045,48.9228226 C78.0591048,63.1206191 66.4914065,74.0868857 52.6913455,74.0868857 C51.0611184,74.0868857 49.4643433,73.9287612 47.9210915,73.6414645 C47.1004028,73.4900215 46.3064755,73.2940361 45.5192385,73.0668715 C45.322987,73.0245565 45.140116,72.9644245 44.9483247,72.9065199 C44.2592138,72.697172 43.5834835,72.4432819 42.9166738,72.1738023 C42.4951787,72.0045423 42.0781438,71.8352823 41.6633391,71.6437511 C40.7110726,71.2161469 39.7855674,70.7306381 38.8935144,70.2005869 C34.1544823,67.3120313 30.3298048,62.9959012 27.945793,57.8045186 C26.2219003,54.0518461 25.225031,49.8470713 25.225031,45.3906337 C25.225031,40.9497856 26.2219003,36.7450106 27.945793,32.9789755 C30.3298048,27.7809119 34.1544823,23.4536462 38.8912843,20.5628634 C39.544713,20.1686658 40.2271336,19.8078747 40.920705,19.4671276 C41.0723539,19.3914061 41.2217729,19.3090031 41.3734218,19.24219 C42.3948228,18.7544539 43.4496753,18.3290768 44.5312898,17.9816484 L44.9483247,17.8368865 C42.5130196,17.0729894 39.9416768,16.6542936 37.2945092,16.6542936 L37.006822,16.6542936 C32.0737686,16.705517 27.4663143,18.1353187 23.494448,20.5606363 C18.7464955,23.451419 14.9307385,27.7786846 12.5489567,32.9767484 C10.8272943,36.7427835 9.83042496,40.9475586 9.83042496,45.3884066 C9.83042496,54.557399 12.4508309,63.1005751 16.9579291,70.2339935 C19.1010866,73.6191936 21.6679694,76.672555 24.5782925,79.3272646 C25.6599069,80.3183263 26.7749733,81.2381209 27.9391024,82.111146 C30.5126756,84.0220026 33.3070319,85.6344268 36.2708783,86.9172394 C37.3480323,87.3782503 38.4452576,87.8036274 39.5625542,88.1777811 C41.1950112,88.7278761 42.8609205,89.1866598 44.5692021,89.5229528 L44.9929273,89.6231724 C45.322987,89.6833041 45.6686576,89.7278462 46.0076377,89.783524 L46.5116477,89.8748353 C48.5299177,90.1844029 50.58387,90.3670257 52.6913455,90.3670257 C76.2393165,90.3670257 95.2846499,70.1092756 95.2846499,45.3906337 C95.2846499,20.6875813 76.2393165,0.369699484 52.6913455,0.369699484 Z M52.6913455,85.9573569 C50.9072391,85.9573569 49.1030619,85.8148223 47.2208297,85.5230715 L46.3622287,85.3805368 L45.8515284,85.2981339 C45.7377915,85.2691815 45.5393099,85.2290936 45.5393099,85.2290936 L45.4389537,85.2112768 C43.9670663,84.9061635 42.4617266,84.5164198 40.9675378,84.0108669 C37.2164545,82.7480984 33.728527,80.926326 30.5728894,78.5811842 C29.5648693,77.8373309 28.5501589,76.9999395 27.5577497,76.0912804 C24.9172727,73.6815524 22.6113155,70.9243961 20.6889411,67.8866244 C16.46953,61.2097628 14.2416274,53.4416193 14.2416274,45.3928608 C14.2416274,41.7314995 15.0177136,38.1659039 16.5631956,34.8163376 C18.5792356,30.3999875 21.7750157,26.7787144 25.7892546,24.3222172 C27.0358987,23.5672285 28.3494469,22.9748185 29.7009074,22.4737198 C27.3637283,25.014847 25.4168224,27.9279007 23.931554,31.1416137 C21.8619909,35.6604105 20.8160587,40.4598224 20.8160587,45.3906337 C20.8160587,50.3370346 21.8686813,55.1275381 23.931554,59.6374262 C26.6924583,65.6483835 31.0768991,70.5970115 36.6098585,73.9621678 C37.2454463,74.347457 37.9167163,74.7149295 38.6058272,75.066812 C39.0094813,75.2717057 39.408675,75.4765995 39.8234797,75.6636762 C40.0710245,75.7817129 40.3297199,75.8774783 40.5817249,75.9821524 C41.5897449,76.4119837 42.6156059,76.8084083 43.677149,77.1313387 L44.3082766,77.3139613 C45.238242,77.5745325 46.1838182,77.8016974 47.104863,77.9687304 C48.9536429,78.3206129 50.8381052,78.4965542 52.6913455,78.4965542 C68.6524051,78.4965542 82.162549,66.0114018 84.1139151,49.457328 C84.2945558,47.9339879 84.3770707,46.6511751 84.3770707,45.3950879 C84.3770707,44.1924508 84.2967859,42.9541803 84.1339865,41.5110161 C83.1571884,28.4223182 77.2830187,16.6921544 68.3825591,8.4140039 C81.625087,14.7991149 90.8712174,28.9545962 90.8712174,45.3950879 C90.8712174,67.7574523 73.7415679,85.9573569 52.6913455,85.9573569 Z" id="Shape" fill="#282827"></path>
                    <path d="M52.6913455,85.9573569 C50.9072391,85.9573569 49.1030619,85.8148223 47.2208297,85.5230715 L46.3622287,85.3805368 L45.8515284,85.2981339 C45.7377915,85.2691815 45.5393099,85.2290936 45.5393099,85.2290936 L45.4389537,85.2112768 C43.9670663,84.9061635 42.4617266,84.5164198 40.9675378,84.0108669 C37.2164545,82.7480984 33.728527,80.926326 30.5728894,78.5811842 C29.5648693,77.8373309 28.5501589,76.9999395 27.5577497,76.0912804 C24.9172727,73.6815524 22.6113155,70.9243961 20.6889411,67.8866244 C16.46953,61.2097628 14.2416274,53.4416193 14.2416274,45.3928608 C14.2416274,41.7314995 15.0177136,38.1659039 16.5631956,34.8163376 C18.5792356,30.3999875 21.7750157,26.7787144 25.7892546,24.3222172 C27.0358987,23.5672285 28.3494469,22.9748185 29.7009074,22.4737198 C27.3637283,25.014847 25.4168224,27.9279007 23.931554,31.1416137 C21.8619909,35.6604105 20.8160587,40.4598224 20.8160587,45.3906337 C20.8160587,50.3370346 21.8686813,55.1275381 23.931554,59.6374262 C26.6924583,65.6483835 31.0768991,70.5970115 36.6098585,73.9621678 C37.2454463,74.347457 37.9167163,74.7149295 38.6058272,75.066812 C39.0094813,75.2717057 39.408675,75.4765995 39.8234797,75.6636762 C40.0710245,75.7817129 40.3297199,75.8774783 40.5817249,75.9821524 C41.5897449,76.4119837 42.6156059,76.8084083 43.677149,77.1313387 L44.3082766,77.3139613 C45.238242,77.5745325 46.1838182,77.8016974 47.104863,77.9687304 C48.9536429,78.3206129 50.8381052,78.4965542 52.6913455,78.4965542 C68.6524051,78.4965542 82.162549,66.0114018 84.1139151,49.457328 C84.2945558,47.9339879 84.3770707,46.6511751 84.3770707,45.3950879 C84.3770707,44.1924508 84.2967859,42.9541803 84.1339865,41.5110161 C83.1571884,28.4223182 77.2830187,16.6921544 68.3825591,8.4140039 C81.625087,14.7991149 90.8712174,28.9545962 90.8712174,45.3950879 C90.8712174,67.7574523 73.7415679,85.9573569 52.6913455,85.9573569 Z" id="Shape" fill="url(#linearGradient-1)"></path>
                </g>
            </g>
        </g>
    </g>
</svg>