<?xml version="1.0" encoding="utf-8"?>
<!-- Generator: Adobe Illustrator 19.2.1, SVG Export Plug-In . SVG Version: 6.00 Build 0)  -->
<!DOCTYPE svg PUBLIC "-//W3C//DTD SVG 1.1//EN" "http://www.w3.org/Graphics/SVG/1.1/DTD/svg11.dtd">
<svg version="1.1"  xmlns="http://www.w3.org/2000/svg" xmlns:xlink="http://www.w3.org/1999/xlink" x="0px" y="0px"
	 viewBox="0 0 32 32" style="enable-background:new 0 0 32 32;" xml:space="preserve">
<style type="text/css">
	.st0{fill:#FFFFFF;}
</style>
<path class="st0" d="M2.727,15.966c0-1.342,0.263-2.663,0.782-3.921c0.772-1.877,2.064-3.454,3.737-4.567
	c1.481-0.985,3.197-1.553,4.958-1.638l0.446-0.005c0.793,0,1.593,0.098,2.38,0.299c4.222,1.078,7.312,4.929,7.514,9.367l0.011,0.469
	c0,1.409-0.288,2.768-0.82,4.015c0.873-1.036,1.406-2.326,1.513-3.695c0.003-0.058,0.01-0.39,0.01-0.39l-0.01-0.441
	c-0.014-0.272-0.041-0.565-0.078-0.886c-0.603-4.989-4.341-8.941-9.089-9.614c-0.478-0.07-0.961-0.101-1.436-0.101l-0.467,0.011
	C9.974,4.973,7.89,5.77,6.148,7.172C5.096,8.02,4.215,9.049,3.531,10.229C2.528,11.956,2,13.937,2,15.953l0.01,0.53
	c0.097,2.203,0.812,4.297,2.068,6.067h0.001c0.248,0.347,0.52,0.673,0.8,0.988c-1.291-2.14-2.03-4.575-2.142-7.11L2.727,15.966z"/>
<path class="st0" d="M17.426,3c-0.201,0-0.404,0.009-0.606,0.021c-0.081,0.005-0.166,0.01-0.248,0.016
	c-0.476,0.034-0.943,0.095-1.401,0.18c5.504,1.052,9.738,5.866,10.18,11.734c0.041,0.333,0.07,0.671,0.07,1.015
	c0,0.345-0.029,0.685-0.07,1.018c-0.49,4.088-3.879,7.245-7.925,7.245c-0.476,0-0.947-0.044-1.396-0.126
	c-0.242-0.045-0.476-0.101-0.705-0.166c-0.055-0.014-0.111-0.03-0.168-0.046c-0.202-0.062-0.4-0.135-0.595-0.212
	c-0.123-0.05-0.245-0.097-0.365-0.152c-0.281-0.125-0.552-0.264-0.813-0.416c-1.389-0.832-2.512-2.076-3.21-3.57
	c-0.503-1.082-0.797-2.292-0.797-3.576c0-1.279,0.294-2.49,0.797-3.574c0.698-1.497,1.819-2.744,3.208-3.577
	c0.194-0.114,0.392-0.217,0.595-0.315c0.046-0.023,0.089-0.046,0.135-0.065c0.299-0.141,0.607-0.262,0.925-0.363l0.121-0.042
	c-0.714-0.22-1.466-0.34-2.243-0.34H12.83c-1.447,0.015-2.796,0.427-3.96,1.125c-1.39,0.833-2.51,2.079-3.208,3.577
	c-0.505,1.083-0.797,2.294-0.797,3.574c0,2.642,0.769,5.1,2.089,7.154c0.626,0.976,1.38,1.855,2.232,2.62
	c0.319,0.285,0.646,0.55,0.986,0.801c0.754,0.552,1.574,1.014,2.442,1.385c0.316,0.132,0.638,0.255,0.966,0.364
	c0.478,0.158,0.965,0.289,1.466,0.386l0.125,0.029c0.098,0.017,0.197,0.03,0.297,0.047l0.147,0.026
	c0.592,0.088,1.194,0.141,1.81,0.141c6.903,0,12.483-5.833,12.483-12.952C29.91,8.852,24.328,3,17.426,3z M17.426,27.647
	c-0.522,0-1.051-0.04-1.603-0.123l-0.249-0.042l-0.15-0.025c-0.034-0.006-0.091-0.021-0.091-0.021l-0.03-0.005
	c-0.43-0.087-0.872-0.201-1.312-0.346c-1.098-0.363-2.122-0.886-3.045-1.562c-0.295-0.216-0.594-0.456-0.882-0.718
	c-0.776-0.692-1.452-1.489-2.018-2.363c-1.234-1.922-1.887-4.158-1.887-6.477c0-1.054,0.227-2.082,0.68-3.047
	c0.59-1.271,1.527-2.315,2.703-3.021c0.367-0.218,0.75-0.387,1.145-0.532c-0.683,0.732-1.254,1.571-1.69,2.496
	c-0.606,1.303-0.912,2.683-0.912,4.104c0,1.425,0.31,2.804,0.912,4.102c0.811,1.733,2.095,3.158,3.715,4.126
	c0.188,0.111,0.384,0.216,0.586,0.318c0.118,0.058,0.235,0.117,0.358,0.171c0.072,0.034,0.147,0.061,0.221,0.091
	c0.297,0.125,0.595,0.239,0.907,0.331l0.186,0.053c0.27,0.074,0.549,0.139,0.818,0.189c0.544,0.101,1.096,0.15,1.637,0.15
	c4.679,0,8.636-3.593,9.209-8.362c0.054-0.438,0.078-0.808,0.078-1.17c0-0.347-0.023-0.704-0.072-1.118
	c-0.286-3.772-2.006-7.149-4.614-9.533c3.88,1.84,6.59,5.915,6.59,10.651C28.616,22.406,23.596,27.647,17.426,27.647z"/>
</svg>
